<mxfile host="app.diagrams.net" modified="2021-12-15T06:15:54.014Z" agent="5.0 (Windows NT 10.0; Win64; x64) AppleWebKit/537.36 (KHTML, like Gecko) Chrome/96.0.4664.110 Safari/537.36" etag="44UbhxhJ9JF7sw0iT68F" version="15.9.1" type="github" pages="5">
  <diagram name="DBC" id="e7e014a7-5840-1c2e-5031-d8a46d1fe8dd">
    <mxGraphModel dx="1422" dy="762" grid="1" gridSize="10" guides="1" tooltips="1" connect="1" arrows="1" fold="1" page="1" pageScale="1" pageWidth="1169" pageHeight="826" background="none" math="0" shadow="0">
      <root>
        <mxCell id="0" />
        <mxCell id="1" parent="0" />
        <mxCell id="2" value="DBC模块结构" style="swimlane;whiteSpace=wrap" parent="1" vertex="1">
          <mxGeometry x="40" y="40" width="1080" height="760" as="geometry" />
        </mxCell>
        <mxCell id="5" value="" style="ellipse;shape=startState;fillColor=#000000;strokeColor=#ff0000;" parent="2" vertex="1">
          <mxGeometry x="65" y="50" width="30" height="30" as="geometry" />
        </mxCell>
        <mxCell id="6" value="" style="edgeStyle=elbowEdgeStyle;elbow=horizontal;verticalAlign=bottom;endArrow=open;endSize=8;strokeColor=#FF0000;endFill=1;rounded=0;entryX=0.5;entryY=0;entryDx=0;entryDy=0;" parent="2" source="5" target="j3g2-RbLPYTZvtvbNVoc-41" edge="1">
          <mxGeometry x="65" y="50" as="geometry">
            <mxPoint x="80.5" y="120" as="targetPoint" />
          </mxGeometry>
        </mxCell>
        <mxCell id="9" value="" style="endArrow=open;strokeColor=#FF0000;endFill=1;rounded=0;exitX=0.5;exitY=1;exitDx=0;exitDy=0;entryX=0.5;entryY=0;entryDx=0;entryDy=0;" parent="2" source="j3g2-RbLPYTZvtvbNVoc-41" target="j3g2-RbLPYTZvtvbNVoc-42" edge="1">
          <mxGeometry relative="1" as="geometry">
            <mxPoint x="80" y="170" as="sourcePoint" />
            <mxPoint x="180.5" y="142" as="targetPoint" />
          </mxGeometry>
        </mxCell>
        <mxCell id="11" value="" style="endArrow=open;strokeColor=#FF0000;endFill=1;rounded=0;entryX=0.5;entryY=0;entryDx=0;entryDy=0;exitX=0.5;exitY=1;exitDx=0;exitDy=0;" parent="2" source="j3g2-RbLPYTZvtvbNVoc-42" target="j3g2-RbLPYTZvtvbNVoc-43" edge="1">
          <mxGeometry relative="1" as="geometry">
            <mxPoint x="160.5" y="322" as="sourcePoint" />
            <mxPoint x="80" y="335" as="targetPoint" />
          </mxGeometry>
        </mxCell>
        <mxCell id="j3g2-RbLPYTZvtvbNVoc-41" value="初始化加密服务" style="rhombus;whiteSpace=wrap;html=1;" parent="2" vertex="1">
          <mxGeometry x="40" y="102" width="80" height="80" as="geometry" />
        </mxCell>
        <mxCell id="j3g2-RbLPYTZvtvbNVoc-42" value="处理命令行" style="rhombus;whiteSpace=wrap;html=1;" parent="2" vertex="1">
          <mxGeometry x="40" y="212" width="80" height="80" as="geometry" />
        </mxCell>
        <mxCell id="j3g2-RbLPYTZvtvbNVoc-46" style="edgeStyle=orthogonalEdgeStyle;rounded=0;orthogonalLoop=1;jettySize=auto;html=1;exitX=0.5;exitY=1;exitDx=0;exitDy=0;entryX=0.5;entryY=0;entryDx=0;entryDy=0;strokeColor=#FF0000;" parent="2" source="j3g2-RbLPYTZvtvbNVoc-43" target="j3g2-RbLPYTZvtvbNVoc-44" edge="1">
          <mxGeometry relative="1" as="geometry" />
        </mxCell>
        <mxCell id="j3g2-RbLPYTZvtvbNVoc-43" value="env_manager" style="rhombus;whiteSpace=wrap;html=1;" parent="2" vertex="1">
          <mxGeometry x="40" y="332" width="80" height="80" as="geometry" />
        </mxCell>
        <mxCell id="j3g2-RbLPYTZvtvbNVoc-44" value="conf_manager" style="rhombus;whiteSpace=wrap;html=1;" parent="2" vertex="1">
          <mxGeometry x="40.5" y="430" width="80" height="80" as="geometry" />
        </mxCell>
        <mxCell id="j3g2-RbLPYTZvtvbNVoc-63" style="edgeStyle=orthogonalEdgeStyle;rounded=0;orthogonalLoop=1;jettySize=auto;html=1;exitX=0.5;exitY=1;exitDx=0;exitDy=0;entryX=0.5;entryY=0;entryDx=0;entryDy=0;strokeColor=#FF0000;" parent="2" source="j3g2-RbLPYTZvtvbNVoc-48" target="j3g2-RbLPYTZvtvbNVoc-62" edge="1">
          <mxGeometry relative="1" as="geometry" />
        </mxCell>
        <mxCell id="j3g2-RbLPYTZvtvbNVoc-48" value="SystemInfo" style="rhombus;whiteSpace=wrap;html=1;" parent="2" vertex="1">
          <mxGeometry x="40.5" y="542" width="80" height="80" as="geometry" />
        </mxCell>
        <mxCell id="j3g2-RbLPYTZvtvbNVoc-50" value="" style="endArrow=open;strokeColor=#FF0000;endFill=1;rounded=0;entryX=0.5;entryY=0;entryDx=0;entryDy=0;exitX=0.5;exitY=1;exitDx=0;exitDy=0;" parent="2" source="j3g2-RbLPYTZvtvbNVoc-44" target="j3g2-RbLPYTZvtvbNVoc-48" edge="1">
          <mxGeometry relative="1" as="geometry">
            <mxPoint x="90" y="302" as="sourcePoint" />
            <mxPoint x="90" y="342" as="targetPoint" />
          </mxGeometry>
        </mxCell>
        <mxCell id="j3g2-RbLPYTZvtvbNVoc-51" value="openssl和secp256k1的加密服务" style="rounded=0;whiteSpace=wrap;html=1;" parent="2" vertex="1">
          <mxGeometry x="175" y="112" width="120" height="60" as="geometry" />
        </mxCell>
        <mxCell id="20" value="" style="endArrow=open;strokeColor=#FF0000;endFill=1;rounded=0;exitX=1;exitY=0.5;exitDx=0;exitDy=0;entryX=0;entryY=0.5;entryDx=0;entryDy=0;" parent="2" source="j3g2-RbLPYTZvtvbNVoc-41" target="j3g2-RbLPYTZvtvbNVoc-51" edge="1">
          <mxGeometry relative="1" as="geometry">
            <mxPoint x="259.5" y="448" as="sourcePoint" />
            <mxPoint x="389.5" y="448" as="targetPoint" />
          </mxGeometry>
        </mxCell>
        <mxCell id="j3g2-RbLPYTZvtvbNVoc-52" value="-help -version -daemon等命令" style="rounded=0;whiteSpace=wrap;html=1;" parent="2" vertex="1">
          <mxGeometry x="175" y="222" width="120" height="60" as="geometry" />
        </mxCell>
        <mxCell id="j3g2-RbLPYTZvtvbNVoc-53" value="" style="endArrow=open;strokeColor=#FF0000;endFill=1;rounded=0;exitX=1;exitY=0.5;exitDx=0;exitDy=0;entryX=0;entryY=0.5;entryDx=0;entryDy=0;" parent="2" source="j3g2-RbLPYTZvtvbNVoc-42" target="j3g2-RbLPYTZvtvbNVoc-52" edge="1">
          <mxGeometry relative="1" as="geometry">
            <mxPoint x="130" y="152" as="sourcePoint" />
            <mxPoint x="295" y="152" as="targetPoint" />
          </mxGeometry>
        </mxCell>
        <mxCell id="j3g2-RbLPYTZvtvbNVoc-54" value="locale区域编码、大小端、常用路径等环境" style="rounded=0;whiteSpace=wrap;html=1;" parent="2" vertex="1">
          <mxGeometry x="175" y="342" width="120" height="60" as="geometry" />
        </mxCell>
        <mxCell id="j3g2-RbLPYTZvtvbNVoc-55" value="" style="endArrow=open;strokeColor=#FF0000;endFill=1;rounded=0;exitX=1;exitY=0.5;exitDx=0;exitDy=0;entryX=0;entryY=0.5;entryDx=0;entryDy=0;" parent="2" source="j3g2-RbLPYTZvtvbNVoc-43" target="j3g2-RbLPYTZvtvbNVoc-54" edge="1">
          <mxGeometry relative="1" as="geometry">
            <mxPoint x="130" y="262" as="sourcePoint" />
            <mxPoint x="295" y="262" as="targetPoint" />
          </mxGeometry>
        </mxCell>
        <mxCell id="j3g2-RbLPYTZvtvbNVoc-56" value="IP、Port、node_ID、key等配置" style="rounded=0;whiteSpace=wrap;html=1;" parent="2" vertex="1">
          <mxGeometry x="175" y="440" width="120" height="60" as="geometry" />
        </mxCell>
        <mxCell id="j3g2-RbLPYTZvtvbNVoc-57" value="" style="endArrow=open;strokeColor=#FF0000;endFill=1;rounded=0;exitX=1;exitY=0.5;exitDx=0;exitDy=0;entryX=0;entryY=0.5;entryDx=0;entryDy=0;" parent="2" source="j3g2-RbLPYTZvtvbNVoc-44" target="j3g2-RbLPYTZvtvbNVoc-56" edge="1">
          <mxGeometry relative="1" as="geometry">
            <mxPoint x="130" y="382" as="sourcePoint" />
            <mxPoint x="295" y="382" as="targetPoint" />
          </mxGeometry>
        </mxCell>
        <mxCell id="j3g2-RbLPYTZvtvbNVoc-66" style="edgeStyle=orthogonalEdgeStyle;rounded=0;orthogonalLoop=1;jettySize=auto;html=1;exitX=1;exitY=0.5;exitDx=0;exitDy=0;entryX=0;entryY=0.5;entryDx=0;entryDy=0;strokeColor=#FF0000;" parent="2" source="j3g2-RbLPYTZvtvbNVoc-58" target="j3g2-RbLPYTZvtvbNVoc-60" edge="1">
          <mxGeometry relative="1" as="geometry" />
        </mxCell>
        <mxCell id="j3g2-RbLPYTZvtvbNVoc-58" value="系统版本、内存信息、CPU、GPU、硬盘、公有IP等信息" style="rounded=0;whiteSpace=wrap;html=1;" parent="2" vertex="1">
          <mxGeometry x="175" y="552" width="120" height="60" as="geometry" />
        </mxCell>
        <mxCell id="j3g2-RbLPYTZvtvbNVoc-60" value="开启了一个线程更新CPU使用情况" style="rounded=0;whiteSpace=wrap;html=1;" parent="2" vertex="1">
          <mxGeometry x="335" y="552" width="120" height="60" as="geometry" />
        </mxCell>
        <mxCell id="j3g2-RbLPYTZvtvbNVoc-65" style="edgeStyle=orthogonalEdgeStyle;rounded=0;orthogonalLoop=1;jettySize=auto;html=1;exitX=1;exitY=0.5;exitDx=0;exitDy=0;strokeColor=#FF0000;" parent="2" source="j3g2-RbLPYTZvtvbNVoc-62" target="j3g2-RbLPYTZvtvbNVoc-64" edge="1">
          <mxGeometry relative="1" as="geometry" />
        </mxCell>
        <mxCell id="j3g2-RbLPYTZvtvbNVoc-62" value="timer_matrix" style="rhombus;whiteSpace=wrap;html=1;" parent="2" vertex="1">
          <mxGeometry x="40.5" y="640" width="80" height="80" as="geometry" />
        </mxCell>
        <mxCell id="j3g2-RbLPYTZvtvbNVoc-68" style="edgeStyle=orthogonalEdgeStyle;rounded=0;orthogonalLoop=1;jettySize=auto;html=1;exitX=1;exitY=0.5;exitDx=0;exitDy=0;entryX=0;entryY=0.5;entryDx=0;entryDy=0;strokeColor=#FF0000;" parent="2" source="j3g2-RbLPYTZvtvbNVoc-64" target="j3g2-RbLPYTZvtvbNVoc-67" edge="1">
          <mxGeometry relative="1" as="geometry" />
        </mxCell>
        <mxCell id="j3g2-RbLPYTZvtvbNVoc-64" value="boost::asio::io_service&lt;br&gt;steady定时器&lt;br&gt;100ms时钟周期" style="rounded=0;whiteSpace=wrap;html=1;" parent="2" vertex="1">
          <mxGeometry x="175" y="650" width="120" height="60" as="geometry" />
        </mxCell>
        <mxCell id="j3g2-RbLPYTZvtvbNVoc-67" value="创建了用于io service的线程，每隔100ms通知订阅者检查计时器是否到期" style="rounded=0;whiteSpace=wrap;html=1;" parent="2" vertex="1">
          <mxGeometry x="335" y="650" width="120" height="60" as="geometry" />
        </mxCell>
        <mxCell id="j3g2-RbLPYTZvtvbNVoc-71" style="edgeStyle=orthogonalEdgeStyle;rounded=0;orthogonalLoop=1;jettySize=auto;html=1;exitX=1;exitY=0.5;exitDx=0;exitDy=0;strokeColor=#FF0000;" parent="2" source="j3g2-RbLPYTZvtvbNVoc-69" target="j3g2-RbLPYTZvtvbNVoc-70" edge="1">
          <mxGeometry relative="1" as="geometry" />
        </mxCell>
        <mxCell id="pLDWIjj2GUjcDCVIS8U9-26" style="edgeStyle=orthogonalEdgeStyle;rounded=0;orthogonalLoop=1;jettySize=auto;html=1;exitX=0.5;exitY=1;exitDx=0;exitDy=0;entryX=0.5;entryY=0;entryDx=0;entryDy=0;strokeColor=#FF0000;" parent="2" source="j3g2-RbLPYTZvtvbNVoc-69" target="j3g2-RbLPYTZvtvbNVoc-72" edge="1">
          <mxGeometry relative="1" as="geometry" />
        </mxCell>
        <mxCell id="j3g2-RbLPYTZvtvbNVoc-69" value="node_request" style="rhombus;whiteSpace=wrap;html=1;" parent="2" vertex="1">
          <mxGeometry x="520" y="82" width="80" height="80" as="geometry" />
        </mxCell>
        <mxCell id="j3g2-RbLPYTZvtvbNVoc-75" style="edgeStyle=orthogonalEdgeStyle;rounded=0;orthogonalLoop=1;jettySize=auto;html=1;exitX=1;exitY=0.5;exitDx=0;exitDy=0;entryX=0;entryY=0.5;entryDx=0;entryDy=0;strokeColor=#FF0000;" parent="2" source="j3g2-RbLPYTZvtvbNVoc-70" target="j3g2-RbLPYTZvtvbNVoc-74" edge="1">
          <mxGeometry relative="1" as="geometry" />
        </mxCell>
        <mxCell id="j3g2-RbLPYTZvtvbNVoc-70" value="功能节点的请求处理和任务管理、websocket的发送、接收和处理" style="rounded=0;whiteSpace=wrap;html=1;" parent="2" vertex="1">
          <mxGeometry x="640" y="92" width="120" height="60" as="geometry" />
        </mxCell>
        <mxCell id="j3g2-RbLPYTZvtvbNVoc-86" style="edgeStyle=orthogonalEdgeStyle;rounded=0;orthogonalLoop=1;jettySize=auto;html=1;exitX=1;exitY=0.5;exitDx=0;exitDy=0;strokeColor=#FF0000;" parent="2" source="j3g2-RbLPYTZvtvbNVoc-72" target="j3g2-RbLPYTZvtvbNVoc-76" edge="1">
          <mxGeometry relative="1" as="geometry" />
        </mxCell>
        <mxCell id="pLDWIjj2GUjcDCVIS8U9-27" style="edgeStyle=orthogonalEdgeStyle;rounded=0;orthogonalLoop=1;jettySize=auto;html=1;exitX=0.5;exitY=1;exitDx=0;exitDy=0;strokeColor=#FF0000;" parent="2" source="j3g2-RbLPYTZvtvbNVoc-72" target="j3g2-RbLPYTZvtvbNVoc-73" edge="1">
          <mxGeometry relative="1" as="geometry" />
        </mxCell>
        <mxCell id="j3g2-RbLPYTZvtvbNVoc-72" value="connect_manager" style="rhombus;whiteSpace=wrap;html=1;" parent="2" vertex="1">
          <mxGeometry x="520" y="202" width="80" height="80" as="geometry" />
        </mxCell>
        <mxCell id="j3g2-RbLPYTZvtvbNVoc-88" style="edgeStyle=orthogonalEdgeStyle;rounded=0;orthogonalLoop=1;jettySize=auto;html=1;exitX=1;exitY=0.5;exitDx=0;exitDy=0;entryX=0;entryY=0.5;entryDx=0;entryDy=0;strokeColor=#FF0000;" parent="2" source="j3g2-RbLPYTZvtvbNVoc-73" target="j3g2-RbLPYTZvtvbNVoc-78" edge="1">
          <mxGeometry relative="1" as="geometry" />
        </mxCell>
        <mxCell id="pLDWIjj2GUjcDCVIS8U9-28" style="edgeStyle=orthogonalEdgeStyle;rounded=0;orthogonalLoop=1;jettySize=auto;html=1;exitX=0.5;exitY=1;exitDx=0;exitDy=0;strokeColor=#FF0000;" parent="2" source="j3g2-RbLPYTZvtvbNVoc-73" target="j3g2-RbLPYTZvtvbNVoc-80" edge="1">
          <mxGeometry relative="1" as="geometry" />
        </mxCell>
        <mxCell id="j3g2-RbLPYTZvtvbNVoc-73" value="p2p net服务" style="rhombus;whiteSpace=wrap;html=1;" parent="2" vertex="1">
          <mxGeometry x="520" y="322" width="80" height="80" as="geometry" />
        </mxCell>
        <mxCell id="j3g2-RbLPYTZvtvbNVoc-95" style="edgeStyle=orthogonalEdgeStyle;rounded=0;orthogonalLoop=1;jettySize=auto;html=1;exitX=1;exitY=0.5;exitDx=0;exitDy=0;entryX=0.5;entryY=0;entryDx=0;entryDy=0;strokeColor=#FF0000;" parent="2" source="j3g2-RbLPYTZvtvbNVoc-74" target="j3g2-RbLPYTZvtvbNVoc-94" edge="1">
          <mxGeometry relative="1" as="geometry" />
        </mxCell>
        <mxCell id="j3g2-RbLPYTZvtvbNVoc-74" value="开启了一个线程处理功能节点的请求" style="rounded=0;whiteSpace=wrap;html=1;" parent="2" vertex="1">
          <mxGeometry x="800" y="92" width="120" height="60" as="geometry" />
        </mxCell>
        <mxCell id="j3g2-RbLPYTZvtvbNVoc-87" style="edgeStyle=orthogonalEdgeStyle;rounded=0;orthogonalLoop=1;jettySize=auto;html=1;exitX=1;exitY=0.5;exitDx=0;exitDy=0;strokeColor=#FF0000;" parent="2" source="j3g2-RbLPYTZvtvbNVoc-76" target="j3g2-RbLPYTZvtvbNVoc-77" edge="1">
          <mxGeometry relative="1" as="geometry" />
        </mxCell>
        <mxCell id="j3g2-RbLPYTZvtvbNVoc-76" value="处理网络连接的connect accept listen send recv等操作和 channel的管理" style="rounded=0;whiteSpace=wrap;html=1;" parent="2" vertex="1">
          <mxGeometry x="640" y="212" width="120" height="60" as="geometry" />
        </mxCell>
        <mxCell id="j3g2-RbLPYTZvtvbNVoc-96" style="edgeStyle=orthogonalEdgeStyle;rounded=0;orthogonalLoop=1;jettySize=auto;html=1;exitX=1;exitY=0.5;exitDx=0;exitDy=0;entryX=0.25;entryY=1;entryDx=0;entryDy=0;strokeColor=#FF0000;" parent="2" source="j3g2-RbLPYTZvtvbNVoc-77" target="j3g2-RbLPYTZvtvbNVoc-94" edge="1">
          <mxGeometry relative="1" as="geometry" />
        </mxCell>
        <mxCell id="j3g2-RbLPYTZvtvbNVoc-77" value="开启了1个accepter服务，1个connector服务和8个worker服务" style="rounded=0;whiteSpace=wrap;html=1;" parent="2" vertex="1">
          <mxGeometry x="800" y="212" width="120" height="60" as="geometry" />
        </mxCell>
        <mxCell id="j3g2-RbLPYTZvtvbNVoc-89" style="edgeStyle=orthogonalEdgeStyle;rounded=0;orthogonalLoop=1;jettySize=auto;html=1;exitX=1;exitY=0.5;exitDx=0;exitDy=0;strokeColor=#FF0000;" parent="2" source="j3g2-RbLPYTZvtvbNVoc-78" target="j3g2-RbLPYTZvtvbNVoc-79" edge="1">
          <mxGeometry relative="1" as="geometry" />
        </mxCell>
        <mxCell id="j3g2-RbLPYTZvtvbNVoc-78" value="&lt;span&gt;建立与功能节点和种子节点的连接，维护节点列表，交换信息&lt;/span&gt;" style="rounded=0;whiteSpace=wrap;html=1;" parent="2" vertex="1">
          <mxGeometry x="640" y="332" width="120" height="60" as="geometry" />
        </mxCell>
        <mxCell id="j3g2-RbLPYTZvtvbNVoc-97" style="edgeStyle=orthogonalEdgeStyle;rounded=0;orthogonalLoop=1;jettySize=auto;html=1;exitX=1;exitY=0.5;exitDx=0;exitDy=0;strokeColor=#FF0000;entryX=0.5;entryY=1;entryDx=0;entryDy=0;" parent="2" source="j3g2-RbLPYTZvtvbNVoc-79" target="j3g2-RbLPYTZvtvbNVoc-94" edge="1">
          <mxGeometry relative="1" as="geometry">
            <mxPoint x="1040" y="310" as="targetPoint" />
          </mxGeometry>
        </mxCell>
        <mxCell id="j3g2-RbLPYTZvtvbNVoc-79" value="监听本地10001端口，accepter ，connecter" style="rounded=0;whiteSpace=wrap;html=1;" parent="2" vertex="1">
          <mxGeometry x="800" y="332" width="120" height="60" as="geometry" />
        </mxCell>
        <mxCell id="j3g2-RbLPYTZvtvbNVoc-90" style="edgeStyle=orthogonalEdgeStyle;rounded=0;orthogonalLoop=1;jettySize=auto;html=1;exitX=1;exitY=0.5;exitDx=0;exitDy=0;strokeColor=#FF0000;" parent="2" source="j3g2-RbLPYTZvtvbNVoc-80" target="j3g2-RbLPYTZvtvbNVoc-82" edge="1">
          <mxGeometry relative="1" as="geometry" />
        </mxCell>
        <mxCell id="pLDWIjj2GUjcDCVIS8U9-29" style="edgeStyle=orthogonalEdgeStyle;rounded=0;orthogonalLoop=1;jettySize=auto;html=1;exitX=0.5;exitY=1;exitDx=0;exitDy=0;strokeColor=#FF0000;" parent="2" source="j3g2-RbLPYTZvtvbNVoc-80" target="j3g2-RbLPYTZvtvbNVoc-81" edge="1">
          <mxGeometry relative="1" as="geometry" />
        </mxCell>
        <mxCell id="j3g2-RbLPYTZvtvbNVoc-80" value="rest api服务" style="rhombus;whiteSpace=wrap;html=1;" parent="2" vertex="1">
          <mxGeometry x="520" y="440" width="80" height="80" as="geometry" />
        </mxCell>
        <mxCell id="j3g2-RbLPYTZvtvbNVoc-92" style="edgeStyle=orthogonalEdgeStyle;rounded=0;orthogonalLoop=1;jettySize=auto;html=1;exitX=1;exitY=0.5;exitDx=0;exitDy=0;entryX=0;entryY=0.5;entryDx=0;entryDy=0;strokeColor=#FF0000;" parent="2" source="j3g2-RbLPYTZvtvbNVoc-81" target="j3g2-RbLPYTZvtvbNVoc-84" edge="1">
          <mxGeometry relative="1" as="geometry" />
        </mxCell>
        <mxCell id="j3g2-RbLPYTZvtvbNVoc-81" value="http服务" style="rhombus;whiteSpace=wrap;html=1;" parent="2" vertex="1">
          <mxGeometry x="520" y="560" width="80" height="80" as="geometry" />
        </mxCell>
        <mxCell id="j3g2-RbLPYTZvtvbNVoc-91" style="edgeStyle=orthogonalEdgeStyle;rounded=0;orthogonalLoop=1;jettySize=auto;html=1;exitX=1;exitY=0.5;exitDx=0;exitDy=0;entryX=0;entryY=0.5;entryDx=0;entryDy=0;strokeColor=#FF0000;" parent="2" source="j3g2-RbLPYTZvtvbNVoc-82" target="j3g2-RbLPYTZvtvbNVoc-83" edge="1">
          <mxGeometry relative="1" as="geometry" />
        </mxCell>
        <mxCell id="j3g2-RbLPYTZvtvbNVoc-82" value="Rest full接口，处理API请求和应答和超时处理" style="rounded=0;whiteSpace=wrap;html=1;" parent="2" vertex="1">
          <mxGeometry x="640" y="450" width="120" height="60" as="geometry" />
        </mxCell>
        <mxCell id="pLDWIjj2GUjcDCVIS8U9-20" style="edgeStyle=orthogonalEdgeStyle;rounded=0;orthogonalLoop=1;jettySize=auto;html=1;exitX=1;exitY=0.5;exitDx=0;exitDy=0;entryX=0.75;entryY=1;entryDx=0;entryDy=0;entryPerimeter=0;strokeColor=#FF0000;" parent="2" source="j3g2-RbLPYTZvtvbNVoc-83" target="j3g2-RbLPYTZvtvbNVoc-94" edge="1">
          <mxGeometry relative="1" as="geometry" />
        </mxCell>
        <mxCell id="j3g2-RbLPYTZvtvbNVoc-83" value="请求主要来自libevent服务，应答主要来自功能节点，30s超时自动回复" style="rounded=0;whiteSpace=wrap;html=1;" parent="2" vertex="1">
          <mxGeometry x="800" y="450" width="120" height="60" as="geometry" />
        </mxCell>
        <mxCell id="j3g2-RbLPYTZvtvbNVoc-93" style="edgeStyle=orthogonalEdgeStyle;rounded=0;orthogonalLoop=1;jettySize=auto;html=1;exitX=1;exitY=0.5;exitDx=0;exitDy=0;strokeColor=#FF0000;" parent="2" source="j3g2-RbLPYTZvtvbNVoc-84" target="j3g2-RbLPYTZvtvbNVoc-85" edge="1">
          <mxGeometry relative="1" as="geometry" />
        </mxCell>
        <mxCell id="j3g2-RbLPYTZvtvbNVoc-84" value="&lt;span&gt;主要使用libevent接受请求，通过publish交给REST API服务处理&lt;/span&gt;" style="rounded=0;whiteSpace=wrap;html=1;" parent="2" vertex="1">
          <mxGeometry x="640" y="570" width="120" height="60" as="geometry" />
        </mxCell>
        <mxCell id="j3g2-RbLPYTZvtvbNVoc-85" value="LibEvent" style="rounded=0;whiteSpace=wrap;html=1;" parent="2" vertex="1">
          <mxGeometry x="800" y="570" width="120" height="60" as="geometry" />
        </mxCell>
        <mxCell id="j3g2-RbLPYTZvtvbNVoc-94" value="boost::asio模块" style="rounded=0;whiteSpace=wrap;html=1;" parent="2" vertex="1">
          <mxGeometry x="950" y="160" width="120" height="60" as="geometry" />
        </mxCell>
        <mxCell id="nzFxxBjij32cpxuQX-4B-20" value="大量使用subscribe-publish模式，用于定时器功能、各个服务之间的通信和recv msg之后的分发处理等。" style="rounded=0;whiteSpace=wrap;html=1;" parent="2" vertex="1">
          <mxGeometry x="600" y="650" width="280" height="60" as="geometry" />
        </mxCell>
        <mxCell id="j3g2-RbLPYTZvtvbNVoc-59" value="" style="endArrow=open;strokeColor=#FF0000;endFill=1;rounded=0;exitX=1;exitY=0.5;exitDx=0;exitDy=0;" parent="1" source="j3g2-RbLPYTZvtvbNVoc-48" edge="1">
          <mxGeometry relative="1" as="geometry">
            <mxPoint x="170.5" y="520" as="sourcePoint" />
            <mxPoint x="215" y="622" as="targetPoint" />
          </mxGeometry>
        </mxCell>
        <mxCell id="pLDWIjj2GUjcDCVIS8U9-24" value="&lt;span&gt;1. 为什么有这么多服务？为什么不合并到一个服务？&lt;br&gt;2. 每个服务都在处理什么事情？有什么区别？&lt;br&gt;3. Asio和libevent应用场景有什么区别？&lt;br&gt;&lt;/span&gt;" style="rounded=0;whiteSpace=wrap;html=1;" parent="1" vertex="1">
          <mxGeometry x="720" y="840" width="400" height="60" as="geometry" />
        </mxCell>
        <mxCell id="pLDWIjj2GUjcDCVIS8U9-25" value="1. 虚拟化libvirt&lt;br&gt;2. Asio和libevent&lt;br&gt;3. Postman" style="rounded=0;whiteSpace=wrap;html=1;" parent="1" vertex="1">
          <mxGeometry x="760" y="920" width="120" height="60" as="geometry" />
        </mxCell>
        <mxCell id="pLDWIjj2GUjcDCVIS8U9-39" style="edgeStyle=orthogonalEdgeStyle;rounded=0;orthogonalLoop=1;jettySize=auto;html=1;exitX=0.5;exitY=1;exitDx=0;exitDy=0;entryX=0.5;entryY=0;entryDx=0;entryDy=0;strokeColor=#FF0000;" parent="1" source="pLDWIjj2GUjcDCVIS8U9-31" target="pLDWIjj2GUjcDCVIS8U9-34" edge="1">
          <mxGeometry relative="1" as="geometry" />
        </mxCell>
        <mxCell id="pLDWIjj2GUjcDCVIS8U9-43" style="edgeStyle=orthogonalEdgeStyle;rounded=0;orthogonalLoop=1;jettySize=auto;html=1;exitX=1;exitY=0.5;exitDx=0;exitDy=0;entryX=0.5;entryY=0;entryDx=0;entryDy=0;strokeColor=#FF0000;" parent="1" source="pLDWIjj2GUjcDCVIS8U9-31" target="pLDWIjj2GUjcDCVIS8U9-35" edge="1">
          <mxGeometry relative="1" as="geometry" />
        </mxCell>
        <mxCell id="pLDWIjj2GUjcDCVIS8U9-31" value="http_server_service&lt;br&gt;libevent回调函数" style="rounded=0;whiteSpace=wrap;html=1;" parent="1" vertex="1">
          <mxGeometry x="40" y="920" width="120" height="60" as="geometry" />
        </mxCell>
        <mxCell id="pLDWIjj2GUjcDCVIS8U9-33" style="edgeStyle=orthogonalEdgeStyle;rounded=0;orthogonalLoop=1;jettySize=auto;html=1;exitX=0.5;exitY=1;exitDx=0;exitDy=0;entryX=0.5;entryY=0;entryDx=0;entryDy=0;strokeColor=#FF0000;" parent="1" source="pLDWIjj2GUjcDCVIS8U9-32" target="pLDWIjj2GUjcDCVIS8U9-31" edge="1">
          <mxGeometry relative="1" as="geometry" />
        </mxCell>
        <mxCell id="pLDWIjj2GUjcDCVIS8U9-32" value="HTTP请求" style="rounded=1;whiteSpace=wrap;html=1;" parent="1" vertex="1">
          <mxGeometry x="55" y="840" width="90" height="40" as="geometry" />
        </mxCell>
        <mxCell id="3PtT3HsG_hEtQFNHx_Ds-42" style="edgeStyle=orthogonalEdgeStyle;rounded=0;orthogonalLoop=1;jettySize=auto;html=1;exitX=0.5;exitY=1;exitDx=0;exitDy=0;strokeColor=#FF0000;" parent="1" source="pLDWIjj2GUjcDCVIS8U9-34" target="3PtT3HsG_hEtQFNHx_Ds-20" edge="1">
          <mxGeometry relative="1" as="geometry" />
        </mxCell>
        <mxCell id="pLDWIjj2GUjcDCVIS8U9-34" value="rest_api_service&lt;br&gt;on_http_request_event" style="rounded=0;whiteSpace=wrap;html=1;" parent="1" vertex="1">
          <mxGeometry x="40" y="1020" width="120" height="60" as="geometry" />
        </mxCell>
        <mxCell id="pLDWIjj2GUjcDCVIS8U9-35" value="http_request" style="swimlane;fontStyle=1;align=center;verticalAlign=top;childLayout=stackLayout;horizontal=1;startSize=26;horizontalStack=0;resizeParent=1;resizeParentMax=0;resizeLast=0;collapsible=1;marginBottom=0;" parent="1" vertex="1">
          <mxGeometry x="200" y="960" width="160" height="86" as="geometry" />
        </mxCell>
        <mxCell id="pLDWIjj2GUjcDCVIS8U9-36" value="m_req: evhttp_request" style="text;strokeColor=none;fillColor=none;align=left;verticalAlign=top;spacingLeft=4;spacingRight=4;overflow=hidden;rotatable=0;points=[[0,0.5],[1,0.5]];portConstraint=eastwest;" parent="pLDWIjj2GUjcDCVIS8U9-35" vertex="1">
          <mxGeometry y="26" width="160" height="26" as="geometry" />
        </mxCell>
        <mxCell id="pLDWIjj2GUjcDCVIS8U9-37" value="" style="line;strokeWidth=1;fillColor=none;align=left;verticalAlign=middle;spacingTop=-1;spacingLeft=3;spacingRight=3;rotatable=0;labelPosition=right;points=[];portConstraint=eastwest;" parent="pLDWIjj2GUjcDCVIS8U9-35" vertex="1">
          <mxGeometry y="52" width="160" height="8" as="geometry" />
        </mxCell>
        <mxCell id="pLDWIjj2GUjcDCVIS8U9-38" value="m_event_base: event_base" style="text;strokeColor=none;fillColor=none;align=left;verticalAlign=top;spacingLeft=4;spacingRight=4;overflow=hidden;rotatable=0;points=[[0,0.5],[1,0.5]];portConstraint=eastwest;" parent="pLDWIjj2GUjcDCVIS8U9-35" vertex="1">
          <mxGeometry y="60" width="160" height="26" as="geometry" />
        </mxCell>
        <mxCell id="pLDWIjj2GUjcDCVIS8U9-44" style="edgeStyle=orthogonalEdgeStyle;rounded=0;orthogonalLoop=1;jettySize=auto;html=1;exitX=0;exitY=0.5;exitDx=0;exitDy=0;strokeColor=#FF0000;" parent="1" source="pLDWIjj2GUjcDCVIS8U9-38" target="pLDWIjj2GUjcDCVIS8U9-34" edge="1">
          <mxGeometry relative="1" as="geometry" />
        </mxCell>
        <mxCell id="3PtT3HsG_hEtQFNHx_Ds-43" style="edgeStyle=orthogonalEdgeStyle;rounded=0;orthogonalLoop=1;jettySize=auto;html=1;exitX=1;exitY=0.5;exitDx=0;exitDy=0;strokeColor=#FF0000;" parent="1" source="3PtT3HsG_hEtQFNHx_Ds-20" target="3PtT3HsG_hEtQFNHx_Ds-35" edge="1">
          <mxGeometry relative="1" as="geometry" />
        </mxCell>
        <mxCell id="3PtT3HsG_hEtQFNHx_Ds-20" value="rest_api_service根据不同的请求调用不同的处理函数" style="rounded=0;whiteSpace=wrap;html=1;" parent="1" vertex="1">
          <mxGeometry x="40" y="1120" width="120" height="60" as="geometry" />
        </mxCell>
        <mxCell id="3PtT3HsG_hEtQFNHx_Ds-35" value="api/v1-rest_api_service" style="swimlane;fontStyle=0;childLayout=stackLayout;horizontal=1;startSize=26;horizontalStack=0;resizeParent=1;resizeParentMax=0;resizeLast=0;collapsible=1;marginBottom=0;" parent="1" vertex="1">
          <mxGeometry x="200" y="1080" width="140" height="104" as="geometry" />
        </mxCell>
        <mxCell id="3PtT3HsG_hEtQFNHx_Ds-36" value="/task--------rest_task" style="text;strokeColor=none;fillColor=none;align=left;verticalAlign=top;spacingLeft=4;spacingRight=4;overflow=hidden;rotatable=0;points=[[0,0.5],[1,0.5]];portConstraint=eastwest;" parent="3PtT3HsG_hEtQFNHx_Ds-35" vertex="1">
          <mxGeometry y="26" width="140" height="26" as="geometry" />
        </mxCell>
        <mxCell id="3PtT3HsG_hEtQFNHx_Ds-37" value="mining_nodes--test_mining_node" style="text;strokeColor=none;fillColor=none;align=left;verticalAlign=top;spacingLeft=4;spacingRight=4;overflow=hidden;rotatable=0;points=[[0,0.5],[1,0.5]];portConstraint=eastwest;" parent="3PtT3HsG_hEtQFNHx_Ds-35" vertex="1">
          <mxGeometry y="52" width="140" height="26" as="geometry" />
        </mxCell>
        <mxCell id="3PtT3HsG_hEtQFNHx_Ds-38" value="peers-------test_peers" style="text;strokeColor=none;fillColor=none;align=left;verticalAlign=top;spacingLeft=4;spacingRight=4;overflow=hidden;rotatable=0;points=[[0,0.5],[1,0.5]];portConstraint=eastwest;" parent="3PtT3HsG_hEtQFNHx_Ds-35" vertex="1">
          <mxGeometry y="78" width="140" height="26" as="geometry" />
        </mxCell>
        <mxCell id="3PtT3HsG_hEtQFNHx_Ds-44" value="sign和nonce可以使用sign_tool工具来生成" style="rounded=0;whiteSpace=wrap;html=1;" parent="1" vertex="1">
          <mxGeometry x="920" y="920" width="120" height="60" as="geometry" />
        </mxCell>
      </root>
    </mxGraphModel>
  </diagram>
  <diagram id="8W5AxXrkHtBveaR6aN0X" name="QueryNodeInfo">
    <mxGraphModel dx="1355" dy="773" grid="1" gridSize="10" guides="1" tooltips="1" connect="1" arrows="1" fold="1" page="1" pageScale="1" pageWidth="1169" pageHeight="827" math="0" shadow="0">
      <root>
        <mxCell id="1dMdUkg9OKJn6RgYqx3M-0" />
        <mxCell id="1dMdUkg9OKJn6RgYqx3M-1" parent="1dMdUkg9OKJn6RgYqx3M-0" />
        <mxCell id="VzqQslKlA9wnV3qL3NKP-0" value="功能节点--query node info" style="swimlane;" vertex="1" parent="1dMdUkg9OKJn6RgYqx3M-1">
          <mxGeometry x="720" y="40" width="360" height="600" as="geometry" />
        </mxCell>
        <mxCell id="VzqQslKlA9wnV3qL3NKP-1" style="edgeStyle=orthogonalEdgeStyle;rounded=0;orthogonalLoop=1;jettySize=auto;html=1;exitX=0.5;exitY=1;exitDx=0;exitDy=0;entryX=0.5;entryY=0;entryDx=0;entryDy=0;strokeColor=#FF0000;" edge="1" parent="VzqQslKlA9wnV3qL3NKP-0" source="VzqQslKlA9wnV3qL3NKP-2" target="VzqQslKlA9wnV3qL3NKP-6">
          <mxGeometry relative="1" as="geometry" />
        </mxCell>
        <mxCell id="VzqQslKlA9wnV3qL3NKP-2" value="matrix_socket_channel_handler::on_read&lt;br&gt;recv msg:&amp;nbsp;node_query_node_info_req" style="rounded=0;whiteSpace=wrap;html=1;" vertex="1" parent="VzqQslKlA9wnV3qL3NKP-0">
          <mxGeometry x="20" y="40" width="320" height="60" as="geometry" />
        </mxCell>
        <mxCell id="VzqQslKlA9wnV3qL3NKP-3" style="edgeStyle=orthogonalEdgeStyle;rounded=0;orthogonalLoop=1;jettySize=auto;html=1;exitX=0.5;exitY=1;exitDx=0;exitDy=0;entryX=0.5;entryY=0;entryDx=0;entryDy=0;strokeColor=#FF0000;" edge="1" parent="VzqQslKlA9wnV3qL3NKP-0" source="VzqQslKlA9wnV3qL3NKP-4" target="VzqQslKlA9wnV3qL3NKP-8">
          <mxGeometry relative="1" as="geometry" />
        </mxCell>
        <mxCell id="VzqQslKlA9wnV3qL3NKP-4" value="node_request_service::on_node_query_node_info_req" style="rounded=0;whiteSpace=wrap;html=1;" vertex="1" parent="VzqQslKlA9wnV3qL3NKP-0">
          <mxGeometry x="20" y="200" width="320" height="60" as="geometry" />
        </mxCell>
        <mxCell id="VzqQslKlA9wnV3qL3NKP-5" style="edgeStyle=orthogonalEdgeStyle;rounded=0;orthogonalLoop=1;jettySize=auto;html=1;exitX=0.5;exitY=1;exitDx=0;exitDy=0;entryX=0.5;entryY=0;entryDx=0;entryDy=0;strokeColor=#FF0000;" edge="1" parent="VzqQslKlA9wnV3qL3NKP-0" source="VzqQslKlA9wnV3qL3NKP-6" target="VzqQslKlA9wnV3qL3NKP-4">
          <mxGeometry relative="1" as="geometry" />
        </mxCell>
        <mxCell id="VzqQslKlA9wnV3qL3NKP-6" value="topic_manager::instance().publish" style="rounded=0;whiteSpace=wrap;html=1;" vertex="1" parent="VzqQslKlA9wnV3qL3NKP-0">
          <mxGeometry x="20" y="120" width="320" height="60" as="geometry" />
        </mxCell>
        <mxCell id="VzqQslKlA9wnV3qL3NKP-7" style="edgeStyle=orthogonalEdgeStyle;rounded=0;orthogonalLoop=1;jettySize=auto;html=1;exitX=0.5;exitY=1;exitDx=0;exitDy=0;entryX=0.5;entryY=0;entryDx=0;entryDy=0;strokeColor=#FF0000;" edge="1" parent="VzqQslKlA9wnV3qL3NKP-0" source="VzqQslKlA9wnV3qL3NKP-8" target="VzqQslKlA9wnV3qL3NKP-10">
          <mxGeometry relative="1" as="geometry" />
        </mxCell>
        <mxCell id="VzqQslKlA9wnV3qL3NKP-8" value="node_request_service::query_node_info" style="rounded=0;whiteSpace=wrap;html=1;" vertex="1" parent="VzqQslKlA9wnV3qL3NKP-0">
          <mxGeometry x="20" y="280" width="320" height="60" as="geometry" />
        </mxCell>
        <mxCell id="VzqQslKlA9wnV3qL3NKP-9" style="edgeStyle=orthogonalEdgeStyle;rounded=0;orthogonalLoop=1;jettySize=auto;html=1;exitX=0.5;exitY=1;exitDx=0;exitDy=0;entryX=0.5;entryY=0;entryDx=0;entryDy=0;strokeColor=#FF0000;" edge="1" parent="VzqQslKlA9wnV3qL3NKP-0" source="VzqQslKlA9wnV3qL3NKP-10" target="VzqQslKlA9wnV3qL3NKP-13">
          <mxGeometry relative="1" as="geometry" />
        </mxCell>
        <mxCell id="VzqQslKlA9wnV3qL3NKP-10" value="connection_manager::send_resp_message&lt;br&gt;node_query_node_info_rsp" style="rounded=0;whiteSpace=wrap;html=1;" vertex="1" parent="VzqQslKlA9wnV3qL3NKP-0">
          <mxGeometry x="20" y="360" width="320" height="60" as="geometry" />
        </mxCell>
        <mxCell id="VzqQslKlA9wnV3qL3NKP-11" value="tcp_socket_channel::write&lt;br&gt;node_query_node_info_rsp" style="rounded=0;whiteSpace=wrap;html=1;" vertex="1" parent="VzqQslKlA9wnV3qL3NKP-0">
          <mxGeometry x="20" y="520" width="320" height="60" as="geometry" />
        </mxCell>
        <mxCell id="VzqQslKlA9wnV3qL3NKP-12" style="edgeStyle=orthogonalEdgeStyle;rounded=0;orthogonalLoop=1;jettySize=auto;html=1;exitX=0.5;exitY=1;exitDx=0;exitDy=0;entryX=0.5;entryY=0;entryDx=0;entryDy=0;strokeColor=#FF0000;" edge="1" parent="VzqQslKlA9wnV3qL3NKP-0" source="VzqQslKlA9wnV3qL3NKP-13" target="VzqQslKlA9wnV3qL3NKP-11">
          <mxGeometry relative="1" as="geometry" />
        </mxCell>
        <mxCell id="VzqQslKlA9wnV3qL3NKP-13" value="connection_manager::find_fast_path&lt;br&gt;根据path找到channel" style="rounded=0;whiteSpace=wrap;html=1;" vertex="1" parent="VzqQslKlA9wnV3qL3NKP-0">
          <mxGeometry x="20" y="440" width="320" height="60" as="geometry" />
        </mxCell>
        <mxCell id="VzqQslKlA9wnV3qL3NKP-14" value="客户端节点-query node info" style="swimlane;" vertex="1" parent="1dMdUkg9OKJn6RgYqx3M-1">
          <mxGeometry x="40" y="40" width="640" height="600" as="geometry" />
        </mxCell>
        <mxCell id="VzqQslKlA9wnV3qL3NKP-15" style="edgeStyle=orthogonalEdgeStyle;rounded=0;orthogonalLoop=1;jettySize=auto;html=1;exitX=0.5;exitY=1;exitDx=0;exitDy=0;entryX=0.5;entryY=0;entryDx=0;entryDy=0;strokeColor=#FF0000;" edge="1" parent="VzqQslKlA9wnV3qL3NKP-14" source="VzqQslKlA9wnV3qL3NKP-16" target="VzqQslKlA9wnV3qL3NKP-18">
          <mxGeometry relative="1" as="geometry" />
        </mxCell>
        <mxCell id="VzqQslKlA9wnV3qL3NKP-16" value="http_server_service::on_http_request_event&lt;br&gt;recv POST request for mining_nodes" style="rounded=0;whiteSpace=wrap;html=1;" vertex="1" parent="VzqQslKlA9wnV3qL3NKP-14">
          <mxGeometry x="20" y="40" width="280" height="60" as="geometry" />
        </mxCell>
        <mxCell id="VzqQslKlA9wnV3qL3NKP-17" style="edgeStyle=orthogonalEdgeStyle;rounded=0;orthogonalLoop=1;jettySize=auto;html=1;exitX=0.5;exitY=1;exitDx=0;exitDy=0;entryX=0.5;entryY=0;entryDx=0;entryDy=0;strokeColor=#FF0000;" edge="1" parent="VzqQslKlA9wnV3qL3NKP-14" source="VzqQslKlA9wnV3qL3NKP-18" target="VzqQslKlA9wnV3qL3NKP-20">
          <mxGeometry relative="1" as="geometry" />
        </mxCell>
        <mxCell id="VzqQslKlA9wnV3qL3NKP-18" value="rest_api_service::rest_list_mining_nodes" style="rounded=0;whiteSpace=wrap;html=1;" vertex="1" parent="VzqQslKlA9wnV3qL3NKP-14">
          <mxGeometry x="20" y="120" width="280" height="60" as="geometry" />
        </mxCell>
        <mxCell id="VzqQslKlA9wnV3qL3NKP-19" style="edgeStyle=orthogonalEdgeStyle;rounded=0;orthogonalLoop=1;jettySize=auto;html=1;exitX=1;exitY=0.5;exitDx=0;exitDy=0;entryX=0;entryY=0.5;entryDx=0;entryDy=0;strokeColor=#FF0000;" edge="1" parent="VzqQslKlA9wnV3qL3NKP-14" source="VzqQslKlA9wnV3qL3NKP-20" target="VzqQslKlA9wnV3qL3NKP-23">
          <mxGeometry relative="1" as="geometry" />
        </mxCell>
        <mxCell id="VzqQslKlA9wnV3qL3NKP-20" value="connection_manager::broadcast_message&lt;br&gt;broadcast msg:&amp;nbsp;node_query_node_info_req" style="rounded=0;whiteSpace=wrap;html=1;" vertex="1" parent="VzqQslKlA9wnV3qL3NKP-14">
          <mxGeometry x="20" y="199" width="280" height="60" as="geometry" />
        </mxCell>
        <mxCell id="VzqQslKlA9wnV3qL3NKP-21" style="edgeStyle=orthogonalEdgeStyle;rounded=0;orthogonalLoop=1;jettySize=auto;html=1;exitX=0.5;exitY=1;exitDx=0;exitDy=0;entryX=0.5;entryY=0;entryDx=0;entryDy=0;strokeColor=#FF0000;" edge="1" parent="VzqQslKlA9wnV3qL3NKP-14" source="VzqQslKlA9wnV3qL3NKP-22" target="VzqQslKlA9wnV3qL3NKP-27">
          <mxGeometry relative="1" as="geometry" />
        </mxCell>
        <mxCell id="VzqQslKlA9wnV3qL3NKP-22" value="matrix_socket_channel_handler::on_read&lt;br&gt;recv mes: node_query_node_info_rsp" style="rounded=0;whiteSpace=wrap;html=1;" vertex="1" parent="VzqQslKlA9wnV3qL3NKP-14">
          <mxGeometry x="20" y="280" width="280" height="60" as="geometry" />
        </mxCell>
        <mxCell id="VzqQslKlA9wnV3qL3NKP-23" value="遍历所有channel" style="swimlane;" vertex="1" parent="VzqQslKlA9wnV3qL3NKP-14">
          <mxGeometry x="340" y="59" width="280" height="200" as="geometry" />
        </mxCell>
        <mxCell id="VzqQslKlA9wnV3qL3NKP-24" value="matrix_socket_channel_handler::on_write" style="rounded=0;whiteSpace=wrap;html=1;" vertex="1" parent="VzqQslKlA9wnV3qL3NKP-23">
          <mxGeometry x="20" y="38" width="240" height="60" as="geometry" />
        </mxCell>
        <mxCell id="VzqQslKlA9wnV3qL3NKP-25" value="tcp_socket_channel::write" style="rounded=0;whiteSpace=wrap;html=1;" vertex="1" parent="VzqQslKlA9wnV3qL3NKP-23">
          <mxGeometry x="20" y="110" width="240" height="60" as="geometry" />
        </mxCell>
        <mxCell id="VzqQslKlA9wnV3qL3NKP-26" style="edgeStyle=orthogonalEdgeStyle;rounded=0;orthogonalLoop=1;jettySize=auto;html=1;exitX=0.5;exitY=1;exitDx=0;exitDy=0;entryX=0.5;entryY=0;entryDx=0;entryDy=0;strokeColor=#FF0000;" edge="1" parent="VzqQslKlA9wnV3qL3NKP-14" source="VzqQslKlA9wnV3qL3NKP-27" target="VzqQslKlA9wnV3qL3NKP-29">
          <mxGeometry relative="1" as="geometry" />
        </mxCell>
        <mxCell id="VzqQslKlA9wnV3qL3NKP-27" value="rest_api_service::on_call_rsp_handler" style="rounded=0;whiteSpace=wrap;html=1;" vertex="1" parent="VzqQslKlA9wnV3qL3NKP-14">
          <mxGeometry x="20" y="360" width="280" height="60" as="geometry" />
        </mxCell>
        <mxCell id="VzqQslKlA9wnV3qL3NKP-28" style="edgeStyle=orthogonalEdgeStyle;rounded=0;orthogonalLoop=1;jettySize=auto;html=1;exitX=0.5;exitY=1;exitDx=0;exitDy=0;entryX=0.5;entryY=0;entryDx=0;entryDy=0;strokeColor=#FF0000;" edge="1" parent="VzqQslKlA9wnV3qL3NKP-14" source="VzqQslKlA9wnV3qL3NKP-29" target="VzqQslKlA9wnV3qL3NKP-30">
          <mxGeometry relative="1" as="geometry" />
        </mxCell>
        <mxCell id="VzqQslKlA9wnV3qL3NKP-29" value="rest_api_service::on_node_query_node_info_rsp" style="rounded=0;whiteSpace=wrap;html=1;" vertex="1" parent="VzqQslKlA9wnV3qL3NKP-14">
          <mxGeometry x="20" y="440" width="280" height="60" as="geometry" />
        </mxCell>
        <mxCell id="VzqQslKlA9wnV3qL3NKP-30" value="http_request::reply_comm_rest_succ2&lt;br&gt;返回给用户端" style="rounded=0;whiteSpace=wrap;html=1;" vertex="1" parent="VzqQslKlA9wnV3qL3NKP-14">
          <mxGeometry x="20" y="520" width="280" height="60" as="geometry" />
        </mxCell>
        <mxCell id="VzqQslKlA9wnV3qL3NKP-31" style="edgeStyle=orthogonalEdgeStyle;rounded=0;orthogonalLoop=1;jettySize=auto;html=1;exitX=1;exitY=0.5;exitDx=0;exitDy=0;entryX=0;entryY=0.5;entryDx=0;entryDy=0;strokeColor=#FF0000;" edge="1" parent="1dMdUkg9OKJn6RgYqx3M-1" source="VzqQslKlA9wnV3qL3NKP-23" target="VzqQslKlA9wnV3qL3NKP-2">
          <mxGeometry relative="1" as="geometry" />
        </mxCell>
        <mxCell id="VzqQslKlA9wnV3qL3NKP-32" style="edgeStyle=orthogonalEdgeStyle;rounded=0;orthogonalLoop=1;jettySize=auto;html=1;exitX=0;exitY=0.5;exitDx=0;exitDy=0;entryX=1;entryY=0.5;entryDx=0;entryDy=0;strokeColor=#FF0000;" edge="1" parent="1dMdUkg9OKJn6RgYqx3M-1" source="VzqQslKlA9wnV3qL3NKP-11" target="VzqQslKlA9wnV3qL3NKP-22">
          <mxGeometry relative="1" as="geometry" />
        </mxCell>
        <mxCell id="mfI7s6uqal2j6xrDrpf3-0" value="network message structure" style="swimlane;" vertex="1" parent="1dMdUkg9OKJn6RgYqx3M-1">
          <mxGeometry x="40" y="660" width="1080" height="430" as="geometry" />
        </mxCell>
        <mxCell id="mfI7s6uqal2j6xrDrpf3-1" value="&lt;p style=&quot;margin: 0px ; margin-top: 4px ; text-align: center&quot;&gt;&lt;i&gt;&amp;lt;&amp;lt;Interface&amp;gt;&amp;gt;&lt;/i&gt;&lt;br&gt;&lt;b&gt;apache::thrift::base&lt;/b&gt;&lt;/p&gt;&lt;hr size=&quot;1&quot;&gt;&lt;p style=&quot;margin: 0px ; margin-left: 4px&quot;&gt;&lt;br&gt;&lt;/p&gt;&lt;hr size=&quot;1&quot;&gt;&lt;p style=&quot;margin: 0px ; margin-left: 4px&quot;&gt;+ validate(): uint32_t&lt;br&gt;+ read(protocol): uint32_t&lt;/p&gt;&lt;p style=&quot;margin: 0px ; margin-left: 4px&quot;&gt;+ write(protocol): uint32_t&lt;/p&gt;" style="verticalAlign=top;align=left;overflow=fill;fontSize=12;fontFamily=Helvetica;html=1;" vertex="1" parent="mfI7s6uqal2j6xrDrpf3-0">
          <mxGeometry x="350" y="61" width="200" height="120" as="geometry" />
        </mxCell>
        <mxCell id="mfI7s6uqal2j6xrDrpf3-2" value="apache::thrift::msg_base" style="swimlane;fontStyle=0;childLayout=stackLayout;horizontal=1;startSize=26;fillColor=none;horizontalStack=0;resizeParent=1;resizeParentMax=0;resizeLast=0;collapsible=1;marginBottom=0;" vertex="1" parent="mfI7s6uqal2j6xrDrpf3-0">
          <mxGeometry x="350" y="222" width="200" height="52" as="geometry" />
        </mxCell>
        <mxCell id="mfI7s6uqal2j6xrDrpf3-3" value="+ header: base_header" style="text;strokeColor=none;fillColor=none;align=left;verticalAlign=top;spacingLeft=4;spacingRight=4;overflow=hidden;rotatable=0;points=[[0,0.5],[1,0.5]];portConstraint=eastwest;" vertex="1" parent="mfI7s6uqal2j6xrDrpf3-2">
          <mxGeometry y="26" width="200" height="26" as="geometry" />
        </mxCell>
        <mxCell id="mfI7s6uqal2j6xrDrpf3-4" value="" style="endArrow=open;endFill=1;endSize=12;html=1;rounded=0;entryX=0.5;entryY=1;entryDx=0;entryDy=0;exitX=0.5;exitY=0;exitDx=0;exitDy=0;" edge="1" parent="mfI7s6uqal2j6xrDrpf3-0" source="mfI7s6uqal2j6xrDrpf3-2" target="mfI7s6uqal2j6xrDrpf3-1">
          <mxGeometry width="160" relative="1" as="geometry">
            <mxPoint x="370" y="391" as="sourcePoint" />
            <mxPoint x="530" y="391" as="targetPoint" />
          </mxGeometry>
        </mxCell>
        <mxCell id="mfI7s6uqal2j6xrDrpf3-5" value="base_header" style="swimlane;fontStyle=1;align=center;verticalAlign=top;childLayout=stackLayout;horizontal=1;startSize=26;horizontalStack=0;resizeParent=1;resizeParentMax=0;resizeLast=0;collapsible=1;marginBottom=0;" vertex="1" parent="mfI7s6uqal2j6xrDrpf3-0">
          <mxGeometry x="590" y="112" width="200" height="200" as="geometry" />
        </mxCell>
        <mxCell id="mfI7s6uqal2j6xrDrpf3-6" value="+ magic: int32_t&#xa;+ msg_name: string&#xa;+ nonce: string&#xa;+ session_id: string&#xa;+ path: vector&lt;string&gt;&#xa;+ exten_info: map&lt;string, string&gt;&#xa;+ _isset: _base_header_isset" style="text;strokeColor=none;fillColor=none;align=left;verticalAlign=top;spacingLeft=4;spacingRight=4;overflow=hidden;rotatable=0;points=[[0,0.5],[1,0.5]];portConstraint=eastwest;" vertex="1" parent="mfI7s6uqal2j6xrDrpf3-5">
          <mxGeometry y="26" width="200" height="114" as="geometry" />
        </mxCell>
        <mxCell id="mfI7s6uqal2j6xrDrpf3-7" value="" style="line;strokeWidth=1;fillColor=none;align=left;verticalAlign=middle;spacingTop=-1;spacingLeft=3;spacingRight=3;rotatable=0;labelPosition=right;points=[];portConstraint=eastwest;" vertex="1" parent="mfI7s6uqal2j6xrDrpf3-5">
          <mxGeometry y="140" width="200" height="8" as="geometry" />
        </mxCell>
        <mxCell id="mfI7s6uqal2j6xrDrpf3-8" value="+ read(iprotocol): uint32_t&#xa;+ write(protocol): uint32_t&#xa;+ printTo(std::ostream): void" style="text;strokeColor=none;fillColor=none;align=left;verticalAlign=top;spacingLeft=4;spacingRight=4;overflow=hidden;rotatable=0;points=[[0,0.5],[1,0.5]];portConstraint=eastwest;" vertex="1" parent="mfI7s6uqal2j6xrDrpf3-5">
          <mxGeometry y="148" width="200" height="52" as="geometry" />
        </mxCell>
        <mxCell id="mfI7s6uqal2j6xrDrpf3-9" value="node_query_node_info_req" style="swimlane;fontStyle=0;childLayout=stackLayout;horizontal=1;startSize=26;fillColor=none;horizontalStack=0;resizeParent=1;resizeParentMax=0;resizeLast=0;collapsible=1;marginBottom=0;" vertex="1" parent="mfI7s6uqal2j6xrDrpf3-0">
          <mxGeometry x="330" y="321" width="240" height="78" as="geometry" />
        </mxCell>
        <mxCell id="mfI7s6uqal2j6xrDrpf3-10" value="+ body: node_query_node_info_req_body" style="text;strokeColor=none;fillColor=none;align=left;verticalAlign=top;spacingLeft=4;spacingRight=4;overflow=hidden;rotatable=0;points=[[0,0.5],[1,0.5]];portConstraint=eastwest;" vertex="1" parent="mfI7s6uqal2j6xrDrpf3-9">
          <mxGeometry y="26" width="240" height="26" as="geometry" />
        </mxCell>
        <mxCell id="mfI7s6uqal2j6xrDrpf3-11" value="+ _isset: _node_query_node_info_req_isset" style="text;strokeColor=none;fillColor=none;align=left;verticalAlign=top;spacingLeft=4;spacingRight=4;overflow=hidden;rotatable=0;points=[[0,0.5],[1,0.5]];portConstraint=eastwest;" vertex="1" parent="mfI7s6uqal2j6xrDrpf3-9">
          <mxGeometry y="52" width="240" height="26" as="geometry" />
        </mxCell>
        <mxCell id="mfI7s6uqal2j6xrDrpf3-12" style="edgeStyle=orthogonalEdgeStyle;rounded=0;orthogonalLoop=1;jettySize=auto;html=1;exitX=1;exitY=0.5;exitDx=0;exitDy=0;strokeColor=#FF0000;" edge="1" parent="mfI7s6uqal2j6xrDrpf3-0" source="mfI7s6uqal2j6xrDrpf3-3" target="mfI7s6uqal2j6xrDrpf3-5">
          <mxGeometry relative="1" as="geometry" />
        </mxCell>
        <mxCell id="mfI7s6uqal2j6xrDrpf3-13" value="" style="endArrow=open;endFill=1;endSize=12;html=1;rounded=0;" edge="1" parent="mfI7s6uqal2j6xrDrpf3-0" source="mfI7s6uqal2j6xrDrpf3-9" target="mfI7s6uqal2j6xrDrpf3-2">
          <mxGeometry width="160" relative="1" as="geometry">
            <mxPoint x="360" y="541" as="sourcePoint" />
            <mxPoint x="520" y="541" as="targetPoint" />
          </mxGeometry>
        </mxCell>
        <mxCell id="mfI7s6uqal2j6xrDrpf3-14" value="node_query_node_info_req_body" style="swimlane;fontStyle=0;childLayout=stackLayout;horizontal=1;startSize=26;fillColor=none;horizontalStack=0;resizeParent=1;resizeParentMax=0;resizeLast=0;collapsible=1;marginBottom=0;" vertex="1" parent="mfI7s6uqal2j6xrDrpf3-0">
          <mxGeometry x="620" y="334" width="220" height="52" as="geometry" />
        </mxCell>
        <mxCell id="mfI7s6uqal2j6xrDrpf3-15" value="+ data: string" style="text;strokeColor=none;fillColor=none;align=left;verticalAlign=top;spacingLeft=4;spacingRight=4;overflow=hidden;rotatable=0;points=[[0,0.5],[1,0.5]];portConstraint=eastwest;" vertex="1" parent="mfI7s6uqal2j6xrDrpf3-14">
          <mxGeometry y="26" width="220" height="26" as="geometry" />
        </mxCell>
        <mxCell id="mfI7s6uqal2j6xrDrpf3-16" value="node_query_node_info_req_data" style="swimlane;fontStyle=0;childLayout=stackLayout;horizontal=1;startSize=26;fillColor=none;horizontalStack=0;resizeParent=1;resizeParentMax=0;resizeLast=0;collapsible=1;marginBottom=0;" vertex="1" parent="mfI7s6uqal2j6xrDrpf3-0">
          <mxGeometry x="830" y="124" width="220" height="156" as="geometry" />
        </mxCell>
        <mxCell id="mfI7s6uqal2j6xrDrpf3-17" value="+ peer_node_list: vector&lt;string&gt;" style="text;strokeColor=none;fillColor=none;align=left;verticalAlign=top;spacingLeft=4;spacingRight=4;overflow=hidden;rotatable=0;points=[[0,0.5],[1,0.5]];portConstraint=eastwest;" vertex="1" parent="mfI7s6uqal2j6xrDrpf3-16">
          <mxGeometry y="26" width="220" height="26" as="geometry" />
        </mxCell>
        <mxCell id="mfI7s6uqal2j6xrDrpf3-18" value="+ additional: string" style="text;strokeColor=none;fillColor=none;align=left;verticalAlign=top;spacingLeft=4;spacingRight=4;overflow=hidden;rotatable=0;points=[[0,0.5],[1,0.5]];portConstraint=eastwest;" vertex="1" parent="mfI7s6uqal2j6xrDrpf3-16">
          <mxGeometry y="52" width="220" height="26" as="geometry" />
        </mxCell>
        <mxCell id="mfI7s6uqal2j6xrDrpf3-19" value="+ wallet: string" style="text;strokeColor=none;fillColor=none;align=left;verticalAlign=top;spacingLeft=4;spacingRight=4;overflow=hidden;rotatable=0;points=[[0,0.5],[1,0.5]];portConstraint=eastwest;" vertex="1" parent="mfI7s6uqal2j6xrDrpf3-16">
          <mxGeometry y="78" width="220" height="26" as="geometry" />
        </mxCell>
        <mxCell id="mfI7s6uqal2j6xrDrpf3-20" value="+ session_id: string" style="text;strokeColor=none;fillColor=none;align=left;verticalAlign=top;spacingLeft=4;spacingRight=4;overflow=hidden;rotatable=0;points=[[0,0.5],[1,0.5]];portConstraint=eastwest;" vertex="1" parent="mfI7s6uqal2j6xrDrpf3-16">
          <mxGeometry y="104" width="220" height="26" as="geometry" />
        </mxCell>
        <mxCell id="mfI7s6uqal2j6xrDrpf3-21" value="+ session_id_sign: string" style="text;strokeColor=none;fillColor=none;align=left;verticalAlign=top;spacingLeft=4;spacingRight=4;overflow=hidden;rotatable=0;points=[[0,0.5],[1,0.5]];portConstraint=eastwest;" vertex="1" parent="mfI7s6uqal2j6xrDrpf3-16">
          <mxGeometry y="130" width="220" height="26" as="geometry" />
        </mxCell>
        <mxCell id="mfI7s6uqal2j6xrDrpf3-22" style="edgeStyle=orthogonalEdgeStyle;rounded=0;orthogonalLoop=1;jettySize=auto;html=1;exitX=1;exitY=0.5;exitDx=0;exitDy=0;strokeColor=#FF0000;" edge="1" parent="mfI7s6uqal2j6xrDrpf3-0" source="mfI7s6uqal2j6xrDrpf3-10" target="mfI7s6uqal2j6xrDrpf3-14">
          <mxGeometry relative="1" as="geometry" />
        </mxCell>
        <mxCell id="mfI7s6uqal2j6xrDrpf3-23" value="" style="edgeStyle=orthogonalEdgeStyle;rounded=0;orthogonalLoop=1;jettySize=auto;html=1;strokeColor=#FF0000;" edge="1" parent="mfI7s6uqal2j6xrDrpf3-0" source="mfI7s6uqal2j6xrDrpf3-24" target="mfI7s6uqal2j6xrDrpf3-15">
          <mxGeometry relative="1" as="geometry" />
        </mxCell>
        <mxCell id="mfI7s6uqal2j6xrDrpf3-24" value="encrypt_data" style="ellipse;whiteSpace=wrap;html=1;" vertex="1" parent="mfI7s6uqal2j6xrDrpf3-0">
          <mxGeometry x="870" y="338" width="140" height="70" as="geometry" />
        </mxCell>
        <mxCell id="mfI7s6uqal2j6xrDrpf3-25" value="" style="edgeStyle=orthogonalEdgeStyle;rounded=0;orthogonalLoop=1;jettySize=auto;html=1;strokeColor=#FF0000;" edge="1" parent="mfI7s6uqal2j6xrDrpf3-0" source="mfI7s6uqal2j6xrDrpf3-16" target="mfI7s6uqal2j6xrDrpf3-24">
          <mxGeometry relative="1" as="geometry" />
        </mxCell>
        <mxCell id="mfI7s6uqal2j6xrDrpf3-26" value="dbc::network::message" style="swimlane;fontStyle=1;align=center;verticalAlign=top;childLayout=stackLayout;horizontal=1;startSize=26;horizontalStack=0;resizeParent=1;resizeParentMax=0;resizeLast=0;collapsible=1;marginBottom=0;" vertex="1" parent="mfI7s6uqal2j6xrDrpf3-0">
          <mxGeometry x="20" y="180" width="260" height="230" as="geometry" />
        </mxCell>
        <mxCell id="mfI7s6uqal2j6xrDrpf3-27" value="+ header: inner_header" style="text;strokeColor=none;fillColor=none;align=left;verticalAlign=top;spacingLeft=4;spacingRight=4;overflow=hidden;rotatable=0;points=[[0,0.5],[1,0.5]];portConstraint=eastwest;" vertex="1" parent="mfI7s6uqal2j6xrDrpf3-26">
          <mxGeometry y="26" width="260" height="26" as="geometry" />
        </mxCell>
        <mxCell id="mfI7s6uqal2j6xrDrpf3-28" value="+ content: shared_ptr&lt;msg_base&gt;" style="text;strokeColor=none;fillColor=none;align=left;verticalAlign=top;spacingLeft=4;spacingRight=4;overflow=hidden;rotatable=0;points=[[0,0.5],[1,0.5]];portConstraint=eastwest;" vertex="1" parent="mfI7s6uqal2j6xrDrpf3-26">
          <mxGeometry y="52" width="260" height="26" as="geometry" />
        </mxCell>
        <mxCell id="mfI7s6uqal2j6xrDrpf3-29" value="" style="line;strokeWidth=1;fillColor=none;align=left;verticalAlign=middle;spacingTop=-1;spacingLeft=3;spacingRight=3;rotatable=0;labelPosition=right;points=[];portConstraint=eastwest;" vertex="1" parent="mfI7s6uqal2j6xrDrpf3-26">
          <mxGeometry y="78" width="260" height="8" as="geometry" />
        </mxCell>
        <mxCell id="mfI7s6uqal2j6xrDrpf3-30" value="+ get_name(): string&#xa;+ set_name(string): void&#xa;+ get_priority(): uint32_t&#xa;+ set_priority(uint32_t): void&#xa;+ get_content(): shared_ptr&lt;msg_base&gt;&#xa;+ set_content(shared_ptr&lt;msg_base&gt;): void&#xa;+ validate(): uint32_t&#xa;+ read(protocol): uint32_t&#xa;+ write(protocol): uint32_t" style="text;strokeColor=none;fillColor=none;align=left;verticalAlign=top;spacingLeft=4;spacingRight=4;overflow=hidden;rotatable=0;points=[[0,0.5],[1,0.5]];portConstraint=eastwest;" vertex="1" parent="mfI7s6uqal2j6xrDrpf3-26">
          <mxGeometry y="86" width="260" height="144" as="geometry" />
        </mxCell>
        <mxCell id="mfI7s6uqal2j6xrDrpf3-31" value="dbc::network::inner_header" style="swimlane;fontStyle=0;childLayout=stackLayout;horizontal=1;startSize=26;fillColor=none;horizontalStack=0;resizeParent=1;resizeParentMax=0;resizeLast=0;collapsible=1;marginBottom=0;" vertex="1" parent="mfI7s6uqal2j6xrDrpf3-0">
          <mxGeometry x="60" y="40" width="180" height="130" as="geometry" />
        </mxCell>
        <mxCell id="mfI7s6uqal2j6xrDrpf3-32" value="+ msg_name: string" style="text;strokeColor=none;fillColor=none;align=left;verticalAlign=top;spacingLeft=4;spacingRight=4;overflow=hidden;rotatable=0;points=[[0,0.5],[1,0.5]];portConstraint=eastwest;" vertex="1" parent="mfI7s6uqal2j6xrDrpf3-31">
          <mxGeometry y="26" width="180" height="26" as="geometry" />
        </mxCell>
        <mxCell id="mfI7s6uqal2j6xrDrpf3-33" value="+ msg_priority: uint32_t" style="text;strokeColor=none;fillColor=none;align=left;verticalAlign=top;spacingLeft=4;spacingRight=4;overflow=hidden;rotatable=0;points=[[0,0.5],[1,0.5]];portConstraint=eastwest;" vertex="1" parent="mfI7s6uqal2j6xrDrpf3-31">
          <mxGeometry y="52" width="180" height="26" as="geometry" />
        </mxCell>
        <mxCell id="mfI7s6uqal2j6xrDrpf3-34" value="+ src_sid: socket_id" style="text;strokeColor=none;fillColor=none;align=left;verticalAlign=top;spacingLeft=4;spacingRight=4;overflow=hidden;rotatable=0;points=[[0,0.5],[1,0.5]];portConstraint=eastwest;" vertex="1" parent="mfI7s6uqal2j6xrDrpf3-31">
          <mxGeometry y="78" width="180" height="26" as="geometry" />
        </mxCell>
        <mxCell id="mfI7s6uqal2j6xrDrpf3-35" value="+ dst_sid: socket_id" style="text;strokeColor=none;fillColor=none;align=left;verticalAlign=top;spacingLeft=4;spacingRight=4;overflow=hidden;rotatable=0;points=[[0,0.5],[1,0.5]];portConstraint=eastwest;" vertex="1" parent="mfI7s6uqal2j6xrDrpf3-31">
          <mxGeometry y="104" width="180" height="26" as="geometry" />
        </mxCell>
        <mxCell id="mfI7s6uqal2j6xrDrpf3-36" style="edgeStyle=orthogonalEdgeStyle;rounded=0;orthogonalLoop=1;jettySize=auto;html=1;exitX=1;exitY=0.5;exitDx=0;exitDy=0;entryX=0.004;entryY=0.179;entryDx=0;entryDy=0;entryPerimeter=0;strokeColor=#FF0000;" edge="1" parent="mfI7s6uqal2j6xrDrpf3-0" source="mfI7s6uqal2j6xrDrpf3-28" target="mfI7s6uqal2j6xrDrpf3-9">
          <mxGeometry relative="1" as="geometry" />
        </mxCell>
        <mxCell id="mfI7s6uqal2j6xrDrpf3-37" style="edgeStyle=orthogonalEdgeStyle;rounded=0;orthogonalLoop=1;jettySize=auto;html=1;exitX=1;exitY=0.5;exitDx=0;exitDy=0;entryX=1;entryY=0.077;entryDx=0;entryDy=0;entryPerimeter=0;strokeColor=#FF0000;" edge="1" parent="mfI7s6uqal2j6xrDrpf3-0" source="mfI7s6uqal2j6xrDrpf3-27" target="mfI7s6uqal2j6xrDrpf3-31">
          <mxGeometry relative="1" as="geometry" />
        </mxCell>
      </root>
    </mxGraphModel>
  </diagram>
  <diagram id="BtLJkSAjA_plidIxyzIj" name="VirtualMachine">
    <mxGraphModel dx="1355" dy="773" grid="1" gridSize="10" guides="1" tooltips="1" connect="1" arrows="1" fold="1" page="1" pageScale="1" pageWidth="1169" pageHeight="827" math="0" shadow="0">
      <root>
        <mxCell id="AQ4-xjCuG3FDvUjtqbWP-0" />
        <mxCell id="AQ4-xjCuG3FDvUjtqbWP-1" parent="AQ4-xjCuG3FDvUjtqbWP-0" />
        <mxCell id="Mg0WT1cSX0NnjSh1X12m-0" value="创建虚拟机" style="swimlane;" vertex="1" parent="AQ4-xjCuG3FDvUjtqbWP-1">
          <mxGeometry x="40" y="40" width="520" height="540" as="geometry" />
        </mxCell>
        <mxCell id="Mg0WT1cSX0NnjSh1X12m-1" style="edgeStyle=orthogonalEdgeStyle;rounded=0;orthogonalLoop=1;jettySize=auto;html=1;exitX=0.5;exitY=1;exitDx=0;exitDy=0;entryX=0.5;entryY=0;entryDx=0;entryDy=0;strokeColor=#FF0000;" edge="1" parent="Mg0WT1cSX0NnjSh1X12m-0" source="Mg0WT1cSX0NnjSh1X12m-2" target="Mg0WT1cSX0NnjSh1X12m-4">
          <mxGeometry relative="1" as="geometry" />
        </mxCell>
        <mxCell id="Mg0WT1cSX0NnjSh1X12m-2" value="TaskManager::ProcessTask&lt;br&gt;node_request_service定时每隔10秒循环一次，扫描处理任务列表" style="rounded=0;whiteSpace=wrap;html=1;" vertex="1" parent="Mg0WT1cSX0NnjSh1X12m-0">
          <mxGeometry x="20" y="40" width="200" height="60" as="geometry" />
        </mxCell>
        <mxCell id="Mg0WT1cSX0NnjSh1X12m-3" style="edgeStyle=orthogonalEdgeStyle;rounded=0;orthogonalLoop=1;jettySize=auto;html=1;exitX=0.5;exitY=1;exitDx=0;exitDy=0;entryX=0.5;entryY=0;entryDx=0;entryDy=0;strokeColor=#FF0000;" edge="1" parent="Mg0WT1cSX0NnjSh1X12m-0" source="Mg0WT1cSX0NnjSh1X12m-4" target="Mg0WT1cSX0NnjSh1X12m-6">
          <mxGeometry relative="1" as="geometry" />
        </mxCell>
        <mxCell id="Mg0WT1cSX0NnjSh1X12m-4" value="创建任务" style="rhombus;whiteSpace=wrap;html=1;" vertex="1" parent="Mg0WT1cSX0NnjSh1X12m-0">
          <mxGeometry x="80" y="140" width="80" height="80" as="geometry" />
        </mxCell>
        <mxCell id="Mg0WT1cSX0NnjSh1X12m-5" style="edgeStyle=orthogonalEdgeStyle;rounded=0;orthogonalLoop=1;jettySize=auto;html=1;exitX=1;exitY=0.5;exitDx=0;exitDy=0;entryX=0;entryY=0.5;entryDx=0;entryDy=0;strokeColor=#FF0000;" edge="1" parent="Mg0WT1cSX0NnjSh1X12m-0" source="Mg0WT1cSX0NnjSh1X12m-6" target="Mg0WT1cSX0NnjSh1X12m-8">
          <mxGeometry relative="1" as="geometry" />
        </mxCell>
        <mxCell id="Mg0WT1cSX0NnjSh1X12m-6" value="VmClient::CreateDomain" style="rounded=0;whiteSpace=wrap;html=1;" vertex="1" parent="Mg0WT1cSX0NnjSh1X12m-0">
          <mxGeometry x="20" y="260" width="200" height="60" as="geometry" />
        </mxCell>
        <mxCell id="Mg0WT1cSX0NnjSh1X12m-7" style="edgeStyle=orthogonalEdgeStyle;rounded=0;orthogonalLoop=1;jettySize=auto;html=1;exitX=0.5;exitY=1;exitDx=0;exitDy=0;entryX=0.5;entryY=0;entryDx=0;entryDy=0;strokeColor=#FF0000;" edge="1" parent="Mg0WT1cSX0NnjSh1X12m-0" source="Mg0WT1cSX0NnjSh1X12m-8" target="Mg0WT1cSX0NnjSh1X12m-10">
          <mxGeometry relative="1" as="geometry" />
        </mxCell>
        <mxCell id="Mg0WT1cSX0NnjSh1X12m-8" value="createXmlStr把id, name, cpu, memory, image等拼成XML" style="rounded=0;whiteSpace=wrap;html=1;" vertex="1" parent="Mg0WT1cSX0NnjSh1X12m-0">
          <mxGeometry x="300" y="40" width="200" height="60" as="geometry" />
        </mxCell>
        <mxCell id="Mg0WT1cSX0NnjSh1X12m-9" style="edgeStyle=orthogonalEdgeStyle;rounded=0;orthogonalLoop=1;jettySize=auto;html=1;exitX=0.5;exitY=1;exitDx=0;exitDy=0;entryX=0.5;entryY=0;entryDx=0;entryDy=0;strokeColor=#FF0000;" edge="1" parent="Mg0WT1cSX0NnjSh1X12m-0" source="Mg0WT1cSX0NnjSh1X12m-10" target="Mg0WT1cSX0NnjSh1X12m-12">
          <mxGeometry relative="1" as="geometry" />
        </mxCell>
        <mxCell id="Mg0WT1cSX0NnjSh1X12m-10" value="virConnectOpen&lt;br&gt;qemu+tcp://localhost:16509/system" style="rounded=0;whiteSpace=wrap;html=1;" vertex="1" parent="Mg0WT1cSX0NnjSh1X12m-0">
          <mxGeometry x="300" y="140" width="200" height="60" as="geometry" />
        </mxCell>
        <mxCell id="Mg0WT1cSX0NnjSh1X12m-11" style="edgeStyle=orthogonalEdgeStyle;rounded=0;orthogonalLoop=1;jettySize=auto;html=1;exitX=0.5;exitY=1;exitDx=0;exitDy=0;entryX=0.5;entryY=0;entryDx=0;entryDy=0;strokeColor=#FF0000;" edge="1" parent="Mg0WT1cSX0NnjSh1X12m-0" source="Mg0WT1cSX0NnjSh1X12m-12" target="Mg0WT1cSX0NnjSh1X12m-14">
          <mxGeometry relative="1" as="geometry" />
        </mxCell>
        <mxCell id="Mg0WT1cSX0NnjSh1X12m-12" value="virDomainDefineXML" style="rounded=0;whiteSpace=wrap;html=1;" vertex="1" parent="Mg0WT1cSX0NnjSh1X12m-0">
          <mxGeometry x="300" y="240" width="200" height="60" as="geometry" />
        </mxCell>
        <mxCell id="Mg0WT1cSX0NnjSh1X12m-13" style="edgeStyle=orthogonalEdgeStyle;rounded=0;orthogonalLoop=1;jettySize=auto;html=1;exitX=0;exitY=0.5;exitDx=0;exitDy=0;entryX=1;entryY=0.5;entryDx=0;entryDy=0;strokeColor=#FF0000;" edge="1" parent="Mg0WT1cSX0NnjSh1X12m-0" source="Mg0WT1cSX0NnjSh1X12m-14" target="Mg0WT1cSX0NnjSh1X12m-16">
          <mxGeometry relative="1" as="geometry" />
        </mxCell>
        <mxCell id="Mg0WT1cSX0NnjSh1X12m-14" value="virDomainCreate" style="rounded=0;whiteSpace=wrap;html=1;" vertex="1" parent="Mg0WT1cSX0NnjSh1X12m-0">
          <mxGeometry x="300" y="339" width="200" height="60" as="geometry" />
        </mxCell>
        <mxCell id="Mg0WT1cSX0NnjSh1X12m-15" style="edgeStyle=orthogonalEdgeStyle;rounded=0;orthogonalLoop=1;jettySize=auto;html=1;exitX=0.5;exitY=1;exitDx=0;exitDy=0;entryX=0.5;entryY=0;entryDx=0;entryDy=0;strokeColor=#FF0000;" edge="1" parent="Mg0WT1cSX0NnjSh1X12m-0" source="Mg0WT1cSX0NnjSh1X12m-16" target="Mg0WT1cSX0NnjSh1X12m-17">
          <mxGeometry relative="1" as="geometry" />
        </mxCell>
        <mxCell id="Mg0WT1cSX0NnjSh1X12m-16" value="TaskManager::create_task_iptable&lt;br&gt;获取共有IP和虚拟机的本地IP，设置iptables规则" style="rounded=0;whiteSpace=wrap;html=1;" vertex="1" parent="Mg0WT1cSX0NnjSh1X12m-0">
          <mxGeometry x="20" y="360" width="200" height="60" as="geometry" />
        </mxCell>
        <mxCell id="Mg0WT1cSX0NnjSh1X12m-17" value="TaskManager::set_vm_password&lt;br&gt;设置虚拟机的密码" style="rounded=0;whiteSpace=wrap;html=1;" vertex="1" parent="Mg0WT1cSX0NnjSh1X12m-0">
          <mxGeometry x="20" y="460" width="200" height="60" as="geometry" />
        </mxCell>
        <mxCell id="Mg0WT1cSX0NnjSh1X12m-18" value="TaskManager" style="swimlane;" vertex="1" parent="AQ4-xjCuG3FDvUjtqbWP-1">
          <mxGeometry x="600" y="40" width="520" height="400" as="geometry" />
        </mxCell>
        <mxCell id="Mg0WT1cSX0NnjSh1X12m-19" value="&lt;p style=&quot;margin: 0px ; margin-top: 6px ; text-align: center&quot;&gt;&lt;b&gt;TaskInfo&lt;/b&gt;&lt;/p&gt;&lt;hr&gt;&lt;p style=&quot;margin: 0px ; margin-left: 8px&quot;&gt;string&amp;nbsp; task_id&lt;/p&gt;&lt;p style=&quot;margin: 0px ; margin-left: 8px&quot;&gt;string&amp;nbsp;&amp;nbsp;image_name&lt;/p&gt;&lt;p style=&quot;margin: 0px ; margin-left: 8px&quot;&gt;string&amp;nbsp;&amp;nbsp;login_password&lt;/p&gt;&lt;p style=&quot;margin: 0px ; margin-left: 8px&quot;&gt;string&amp;nbsp;&amp;nbsp;ssh_port&lt;/p&gt;&lt;p style=&quot;margin: 0px ; margin-left: 8px&quot;&gt;int64_t&amp;nbsp; status&lt;/p&gt;&lt;p style=&quot;margin: 0px ; margin-left: 8px&quot;&gt;int64_t&amp;nbsp;&amp;nbsp;operation&lt;/p&gt;&lt;p style=&quot;margin: 0px ; margin-left: 8px&quot;&gt;int64_t&amp;nbsp;&amp;nbsp;create_time&lt;/p&gt;&lt;p style=&quot;margin: 0px ; margin-left: 8px&quot;&gt;int64_t&amp;nbsp;&amp;nbsp;last_start_time&lt;/p&gt;&lt;p style=&quot;margin: 0px ; margin-left: 8px&quot;&gt;int64_t&amp;nbsp;&amp;nbsp;last_stop_time&lt;/p&gt;&lt;p style=&quot;margin: 0px ; margin-left: 8px&quot;&gt;HardwareResource hardware_resource&lt;/p&gt;&lt;p style=&quot;margin: 0px ; margin-left: 8px&quot;&gt;string&amp;nbsp; vm_xml&lt;/p&gt;&lt;p style=&quot;margin: 0px ; margin-left: 8px&quot;&gt;string&amp;nbsp; vm_xml_url&lt;/p&gt;" style="align=left;overflow=fill;html=1;dropTarget=0;" vertex="1" parent="Mg0WT1cSX0NnjSh1X12m-18">
          <mxGeometry x="40" y="40" width="180" height="220" as="geometry" />
        </mxCell>
        <mxCell id="Mg0WT1cSX0NnjSh1X12m-20" value="" style="shape=component;jettyWidth=8;jettyHeight=4;" vertex="1" parent="Mg0WT1cSX0NnjSh1X12m-19">
          <mxGeometry x="1" width="20" height="20" relative="1" as="geometry">
            <mxPoint x="-24" y="4" as="offset" />
          </mxGeometry>
        </mxCell>
        <mxCell id="Mg0WT1cSX0NnjSh1X12m-21" value="&lt;p style=&quot;margin: 0px ; margin-top: 6px ; text-align: center&quot;&gt;&lt;b&gt;task_iptable&lt;/b&gt;&lt;/p&gt;&lt;hr&gt;&lt;p style=&quot;margin: 0px ; margin-left: 8px&quot;&gt;string&amp;nbsp;&amp;nbsp;task_id&lt;/p&gt;&lt;p style=&quot;margin: 0px ; margin-left: 8px&quot;&gt;string&amp;nbsp;&amp;nbsp;host_ip&lt;/p&gt;&lt;p style=&quot;margin: 0px ; margin-left: 8px&quot;&gt;string&amp;nbsp;&amp;nbsp;vm_local_ip&lt;/p&gt;&lt;p style=&quot;margin: 0px ; margin-left: 8px&quot;&gt;string&amp;nbsp;&amp;nbsp;ssh_port&lt;/p&gt;" style="align=left;overflow=fill;html=1;dropTarget=0;" vertex="1" parent="Mg0WT1cSX0NnjSh1X12m-18">
          <mxGeometry x="40" y="280" width="180" height="100" as="geometry" />
        </mxCell>
        <mxCell id="Mg0WT1cSX0NnjSh1X12m-22" value="" style="shape=component;jettyWidth=8;jettyHeight=4;" vertex="1" parent="Mg0WT1cSX0NnjSh1X12m-21">
          <mxGeometry x="1" width="20" height="20" relative="1" as="geometry">
            <mxPoint x="-24" y="4" as="offset" />
          </mxGeometry>
        </mxCell>
        <mxCell id="Mg0WT1cSX0NnjSh1X12m-23" value="&lt;p style=&quot;margin: 0px ; margin-top: 6px ; text-align: center&quot;&gt;&lt;b&gt;rent_sessionid&lt;/b&gt;&lt;br&gt;&lt;/p&gt;&lt;hr&gt;&lt;p style=&quot;margin: 0px ; margin-left: 8px&quot;&gt;string&amp;nbsp;&amp;nbsp;rent_wallet&lt;/p&gt;&lt;p style=&quot;margin: 0px ; margin-left: 8px&quot;&gt;string&amp;nbsp;&amp;nbsp;session_id&lt;/p&gt;" style="align=left;overflow=fill;html=1;dropTarget=0;" vertex="1" parent="Mg0WT1cSX0NnjSh1X12m-18">
          <mxGeometry x="280" y="40" width="180" height="90" as="geometry" />
        </mxCell>
        <mxCell id="Mg0WT1cSX0NnjSh1X12m-24" value="" style="shape=component;jettyWidth=8;jettyHeight=4;" vertex="1" parent="Mg0WT1cSX0NnjSh1X12m-23">
          <mxGeometry x="1" width="20" height="20" relative="1" as="geometry">
            <mxPoint x="-24" y="4" as="offset" />
          </mxGeometry>
        </mxCell>
        <mxCell id="Mg0WT1cSX0NnjSh1X12m-25" value="&lt;p style=&quot;margin: 0px ; margin-top: 6px ; text-align: center&quot;&gt;&lt;b&gt;rent_task&lt;/b&gt;&lt;br&gt;&lt;/p&gt;&lt;hr&gt;&lt;p style=&quot;margin: 0px ; margin-left: 8px&quot;&gt;string rent_wallet&lt;br&gt;vector&amp;lt;string&amp;gt; task_ids&lt;/p&gt;&lt;p style=&quot;margin: 0px ; margin-left: 8px&quot;&gt;int64_t rent_end&lt;/p&gt;" style="align=left;overflow=fill;html=1;dropTarget=0;" vertex="1" parent="Mg0WT1cSX0NnjSh1X12m-18">
          <mxGeometry x="280" y="160" width="180" height="90" as="geometry" />
        </mxCell>
        <mxCell id="Mg0WT1cSX0NnjSh1X12m-26" value="" style="shape=component;jettyWidth=8;jettyHeight=4;" vertex="1" parent="Mg0WT1cSX0NnjSh1X12m-25">
          <mxGeometry x="1" width="20" height="20" relative="1" as="geometry">
            <mxPoint x="-24" y="4" as="offset" />
          </mxGeometry>
        </mxCell>
        <mxCell id="Mg0WT1cSX0NnjSh1X12m-27" value="Machine状态变换" style="swimlane;" vertex="1" parent="AQ4-xjCuG3FDvUjtqbWP-1">
          <mxGeometry x="40" y="640" width="760" height="160" as="geometry" />
        </mxCell>
        <mxCell id="Mg0WT1cSX0NnjSh1X12m-28" value="online" style="rounded=0;whiteSpace=wrap;html=1;" vertex="1" parent="Mg0WT1cSX0NnjSh1X12m-27">
          <mxGeometry x="40" y="60" width="80" height="40" as="geometry" />
        </mxCell>
        <mxCell id="Mg0WT1cSX0NnjSh1X12m-29" value="creating" style="rounded=0;whiteSpace=wrap;html=1;" vertex="1" parent="Mg0WT1cSX0NnjSh1X12m-27">
          <mxGeometry x="200" y="60" width="80" height="40" as="geometry" />
        </mxCell>
        <mxCell id="Mg0WT1cSX0NnjSh1X12m-30" style="edgeStyle=orthogonalEdgeStyle;rounded=0;orthogonalLoop=1;jettySize=auto;html=1;exitX=1;exitY=0.5;exitDx=0;exitDy=0;entryX=0;entryY=0.5;entryDx=0;entryDy=0;strokeColor=#FF0000;" edge="1" parent="Mg0WT1cSX0NnjSh1X12m-27" source="Mg0WT1cSX0NnjSh1X12m-28" target="Mg0WT1cSX0NnjSh1X12m-29">
          <mxGeometry relative="1" as="geometry" />
        </mxCell>
        <mxCell id="Mg0WT1cSX0NnjSh1X12m-31" value="dbc创建虚拟机" style="rounded=0;whiteSpace=wrap;html=1;" vertex="1" parent="Mg0WT1cSX0NnjSh1X12m-27">
          <mxGeometry x="360" y="60" width="100" height="40" as="geometry" />
        </mxCell>
        <mxCell id="Mg0WT1cSX0NnjSh1X12m-32" style="edgeStyle=orthogonalEdgeStyle;rounded=0;orthogonalLoop=1;jettySize=auto;html=1;exitX=1;exitY=0.5;exitDx=0;exitDy=0;entryX=0;entryY=0.5;entryDx=0;entryDy=0;strokeColor=#FF0000;" edge="1" parent="Mg0WT1cSX0NnjSh1X12m-27" source="Mg0WT1cSX0NnjSh1X12m-29" target="Mg0WT1cSX0NnjSh1X12m-31">
          <mxGeometry relative="1" as="geometry" />
        </mxCell>
        <mxCell id="Mg0WT1cSX0NnjSh1X12m-33" value="rented" style="rounded=0;whiteSpace=wrap;html=1;" vertex="1" parent="Mg0WT1cSX0NnjSh1X12m-27">
          <mxGeometry x="640" y="60" width="80" height="40" as="geometry" />
        </mxCell>
        <mxCell id="Mg0WT1cSX0NnjSh1X12m-34" value="付钱" style="text;html=1;strokeColor=none;fillColor=none;align=center;verticalAlign=middle;whiteSpace=wrap;rounded=0;" vertex="1" parent="Mg0WT1cSX0NnjSh1X12m-27">
          <mxGeometry x="140" y="60" width="40" height="20" as="geometry" />
        </mxCell>
        <mxCell id="Mg0WT1cSX0NnjSh1X12m-35" style="edgeStyle=orthogonalEdgeStyle;rounded=0;orthogonalLoop=1;jettySize=auto;html=1;exitX=1;exitY=0.5;exitDx=0;exitDy=0;entryX=0;entryY=0.5;entryDx=0;entryDy=0;strokeColor=#FF0000;" edge="1" parent="Mg0WT1cSX0NnjSh1X12m-27" source="Mg0WT1cSX0NnjSh1X12m-37" target="Mg0WT1cSX0NnjSh1X12m-33">
          <mxGeometry relative="1" as="geometry" />
        </mxCell>
        <mxCell id="Mg0WT1cSX0NnjSh1X12m-36" style="edgeStyle=orthogonalEdgeStyle;rounded=0;orthogonalLoop=1;jettySize=auto;html=1;exitX=0.5;exitY=1;exitDx=0;exitDy=0;entryX=0.5;entryY=1;entryDx=0;entryDy=0;strokeColor=#FF0000;" edge="1" parent="Mg0WT1cSX0NnjSh1X12m-27" source="Mg0WT1cSX0NnjSh1X12m-37" target="Mg0WT1cSX0NnjSh1X12m-28">
          <mxGeometry relative="1" as="geometry" />
        </mxCell>
        <mxCell id="Mg0WT1cSX0NnjSh1X12m-37" value="等待用户&lt;br&gt;确认(30m)" style="rhombus;whiteSpace=wrap;html=1;" vertex="1" parent="Mg0WT1cSX0NnjSh1X12m-27">
          <mxGeometry x="500" y="40" width="80" height="80" as="geometry" />
        </mxCell>
        <mxCell id="Mg0WT1cSX0NnjSh1X12m-38" style="edgeStyle=orthogonalEdgeStyle;rounded=0;orthogonalLoop=1;jettySize=auto;html=1;exitX=1;exitY=0.5;exitDx=0;exitDy=0;entryX=0;entryY=0.5;entryDx=0;entryDy=0;strokeColor=#FF0000;" edge="1" parent="Mg0WT1cSX0NnjSh1X12m-27" source="Mg0WT1cSX0NnjSh1X12m-31" target="Mg0WT1cSX0NnjSh1X12m-37">
          <mxGeometry relative="1" as="geometry" />
        </mxCell>
        <mxCell id="Mg0WT1cSX0NnjSh1X12m-39" value="POST请求" style="text;html=1;strokeColor=none;fillColor=none;align=center;verticalAlign=middle;whiteSpace=wrap;rounded=0;" vertex="1" parent="Mg0WT1cSX0NnjSh1X12m-27">
          <mxGeometry x="290" y="60" width="60" height="20" as="geometry" />
        </mxCell>
        <mxCell id="Mg0WT1cSX0NnjSh1X12m-40" value="确认" style="text;html=1;strokeColor=none;fillColor=none;align=center;verticalAlign=middle;whiteSpace=wrap;rounded=0;" vertex="1" parent="Mg0WT1cSX0NnjSh1X12m-27">
          <mxGeometry x="590" y="60" width="40" height="20" as="geometry" />
        </mxCell>
        <mxCell id="Mg0WT1cSX0NnjSh1X12m-41" value="未确认" style="text;html=1;strokeColor=none;fillColor=none;align=center;verticalAlign=middle;whiteSpace=wrap;rounded=0;" vertex="1" parent="Mg0WT1cSX0NnjSh1X12m-27">
          <mxGeometry x="540" y="120" width="40" height="20" as="geometry" />
        </mxCell>
      </root>
    </mxGraphModel>
  </diagram>
  <diagram id="elFbNPDhMEHttwFuHjwi" name="DBC-Version">
    <mxGraphModel dx="1355" dy="773" grid="1" gridSize="10" guides="1" tooltips="1" connect="1" arrows="1" fold="1" page="1" pageScale="1" pageWidth="1169" pageHeight="827" math="0" shadow="0">
      <root>
        <mxCell id="K8szDP7gijsbBbK3Kba1-0" />
        <mxCell id="K8szDP7gijsbBbK3Kba1-1" parent="K8szDP7gijsbBbK3Kba1-0" />
        <mxCell id="K8szDP7gijsbBbK3Kba1-3" value="release" style="swimlane;fontStyle=0;childLayout=stackLayout;horizontal=1;startSize=30;horizontalStack=0;resizeParent=1;resizeParentMax=0;resizeLast=0;collapsible=1;marginBottom=0;" parent="K8szDP7gijsbBbK3Kba1-1" vertex="1">
          <mxGeometry x="40" y="40" width="140" height="110" as="geometry" />
        </mxCell>
        <mxCell id="K8szDP7gijsbBbK3Kba1-4" value="version" style="text;strokeColor=none;fillColor=none;align=left;verticalAlign=middle;spacingLeft=4;spacingRight=4;overflow=hidden;points=[[0,0.5],[1,0.5]];portConstraint=eastwest;rotatable=0;" parent="K8szDP7gijsbBbK3Kba1-3" vertex="1">
          <mxGeometry y="30" width="140" height="20" as="geometry" />
        </mxCell>
        <mxCell id="K8szDP7gijsbBbK3Kba1-5" value="dbc-linux-client.tar.gz" style="text;strokeColor=none;fillColor=none;align=left;verticalAlign=middle;spacingLeft=4;spacingRight=4;overflow=hidden;points=[[0,0.5],[1,0.5]];portConstraint=eastwest;rotatable=0;" parent="K8szDP7gijsbBbK3Kba1-3" vertex="1">
          <mxGeometry y="50" width="140" height="20" as="geometry" />
        </mxCell>
        <mxCell id="K8szDP7gijsbBbK3Kba1-6" value="dbc-linux-mining.tar.gz" style="text;strokeColor=none;fillColor=none;align=left;verticalAlign=middle;spacingLeft=4;spacingRight=4;overflow=hidden;points=[[0,0.5],[1,0.5]];portConstraint=eastwest;rotatable=0;" parent="K8szDP7gijsbBbK3Kba1-3" vertex="1">
          <mxGeometry y="70" width="140" height="20" as="geometry" />
        </mxCell>
        <mxCell id="K8szDP7gijsbBbK3Kba1-7" value="......" style="text;strokeColor=none;fillColor=none;align=left;verticalAlign=middle;spacingLeft=4;spacingRight=4;overflow=hidden;points=[[0,0.5],[1,0.5]];portConstraint=eastwest;rotatable=0;" parent="K8szDP7gijsbBbK3Kba1-3" vertex="1">
          <mxGeometry y="90" width="140" height="20" as="geometry" />
        </mxCell>
        <mxCell id="K8szDP7gijsbBbK3Kba1-8" value="version" style="swimlane;fontStyle=0;childLayout=stackLayout;horizontal=1;startSize=30;horizontalStack=0;resizeParent=1;resizeParentMax=0;resizeLast=0;collapsible=1;marginBottom=0;" parent="K8szDP7gijsbBbK3Kba1-1" vertex="1">
          <mxGeometry x="220" y="40" width="140" height="90" as="geometry" />
        </mxCell>
        <mxCell id="K8szDP7gijsbBbK3Kba1-9" value="version 0.3.7.4" style="text;strokeColor=none;fillColor=none;align=left;verticalAlign=middle;spacingLeft=4;spacingRight=4;overflow=hidden;points=[[0,0.5],[1,0.5]];portConstraint=eastwest;rotatable=0;" parent="K8szDP7gijsbBbK3Kba1-8" vertex="1">
          <mxGeometry y="30" width="140" height="20" as="geometry" />
        </mxCell>
        <mxCell id="K8szDP7gijsbBbK3Kba1-10" value="mining xxxxxxx" style="text;strokeColor=none;fillColor=none;align=left;verticalAlign=middle;spacingLeft=4;spacingRight=4;overflow=hidden;points=[[0,0.5],[1,0.5]];portConstraint=eastwest;rotatable=0;" parent="K8szDP7gijsbBbK3Kba1-8" vertex="1">
          <mxGeometry y="50" width="140" height="20" as="geometry" />
        </mxCell>
        <mxCell id="K8szDP7gijsbBbK3Kba1-11" value="client xxxxxx" style="text;strokeColor=none;fillColor=none;align=left;verticalAlign=middle;spacingLeft=4;spacingRight=4;overflow=hidden;points=[[0,0.5],[1,0.5]];portConstraint=eastwest;rotatable=0;" parent="K8szDP7gijsbBbK3Kba1-8" vertex="1">
          <mxGeometry y="70" width="140" height="20" as="geometry" />
        </mxCell>
        <mxCell id="K8szDP7gijsbBbK3Kba1-12" style="edgeStyle=orthogonalEdgeStyle;rounded=0;orthogonalLoop=1;jettySize=auto;html=1;exitX=1;exitY=0.5;exitDx=0;exitDy=0;entryX=0;entryY=0.5;entryDx=0;entryDy=0;strokeColor=#FF0000;" parent="K8szDP7gijsbBbK3Kba1-1" source="K8szDP7gijsbBbK3Kba1-4" target="K8szDP7gijsbBbK3Kba1-9" edge="1">
          <mxGeometry relative="1" as="geometry" />
        </mxCell>
      </root>
    </mxGraphModel>
  </diagram>
  <diagram id="J1nb51LpcGQlPw_KKRka" name="snapshot">
    <mxGraphModel dx="1422" dy="762" grid="1" gridSize="10" guides="1" tooltips="1" connect="1" arrows="1" fold="1" page="1" pageScale="1" pageWidth="1169" pageHeight="827" math="0" shadow="0">
      <root>
        <mxCell id="dhDz2maP-IoZ1QfBoIZU-0" />
        <mxCell id="dhDz2maP-IoZ1QfBoIZU-1" parent="dhDz2maP-IoZ1QfBoIZU-0" />
        <mxCell id="tgjGIo8WqNzbjhGjA4_5-2" value="模板机器" style="swimlane;" vertex="1" parent="dhDz2maP-IoZ1QfBoIZU-1">
          <mxGeometry x="40" y="40" width="200" height="640" as="geometry" />
        </mxCell>
        <mxCell id="tgjGIo8WqNzbjhGjA4_5-3" style="edgeStyle=orthogonalEdgeStyle;rounded=0;orthogonalLoop=1;jettySize=auto;html=1;exitX=0.5;exitY=1;exitDx=0;exitDy=0;entryX=0.5;entryY=0;entryDx=0;entryDy=0;strokeColor=#FF0000;" edge="1" parent="tgjGIo8WqNzbjhGjA4_5-2" source="tgjGIo8WqNzbjhGjA4_5-0" target="tgjGIo8WqNzbjhGjA4_5-1">
          <mxGeometry relative="1" as="geometry" />
        </mxCell>
        <mxCell id="tgjGIo8WqNzbjhGjA4_5-0" value="ubuntu.qcow2" style="ellipse;whiteSpace=wrap;html=1;" vertex="1" parent="tgjGIo8WqNzbjhGjA4_5-2">
          <mxGeometry x="40" y="40" width="120" height="80" as="geometry" />
        </mxCell>
        <mxCell id="tgjGIo8WqNzbjhGjA4_5-6" style="edgeStyle=orthogonalEdgeStyle;rounded=0;orthogonalLoop=1;jettySize=auto;html=1;exitX=0.5;exitY=1;exitDx=0;exitDy=0;entryX=0.5;entryY=0;entryDx=0;entryDy=0;strokeColor=#FF0000;" edge="1" parent="tgjGIo8WqNzbjhGjA4_5-2" source="tgjGIo8WqNzbjhGjA4_5-1" target="tgjGIo8WqNzbjhGjA4_5-5">
          <mxGeometry relative="1" as="geometry" />
        </mxCell>
        <mxCell id="tgjGIo8WqNzbjhGjA4_5-1" value="ubuntu_id1.qcow2" style="ellipse;whiteSpace=wrap;html=1;" vertex="1" parent="tgjGIo8WqNzbjhGjA4_5-2">
          <mxGeometry x="40" y="150" width="120" height="80" as="geometry" />
        </mxCell>
        <mxCell id="tgjGIo8WqNzbjhGjA4_5-4" value="复制" style="text;html=1;strokeColor=none;fillColor=none;align=center;verticalAlign=middle;whiteSpace=wrap;rounded=0;" vertex="1" parent="tgjGIo8WqNzbjhGjA4_5-2">
          <mxGeometry x="90" y="120" width="60" height="30" as="geometry" />
        </mxCell>
        <mxCell id="tgjGIo8WqNzbjhGjA4_5-9" style="edgeStyle=orthogonalEdgeStyle;rounded=0;orthogonalLoop=1;jettySize=auto;html=1;exitX=0.5;exitY=1;exitDx=0;exitDy=0;entryX=0.5;entryY=0;entryDx=0;entryDy=0;strokeColor=#FF0000;" edge="1" parent="tgjGIo8WqNzbjhGjA4_5-2" source="tgjGIo8WqNzbjhGjA4_5-5" target="tgjGIo8WqNzbjhGjA4_5-8">
          <mxGeometry relative="1" as="geometry" />
        </mxCell>
        <mxCell id="tgjGIo8WqNzbjhGjA4_5-5" value="虚拟机&lt;br&gt;ubuntu_id1.qcow2" style="rounded=0;whiteSpace=wrap;html=1;" vertex="1" parent="tgjGIo8WqNzbjhGjA4_5-2">
          <mxGeometry x="40" y="260" width="120" height="60" as="geometry" />
        </mxCell>
        <mxCell id="tgjGIo8WqNzbjhGjA4_5-7" value="创建虚拟机" style="text;html=1;strokeColor=none;fillColor=none;align=center;verticalAlign=middle;whiteSpace=wrap;rounded=0;" vertex="1" parent="tgjGIo8WqNzbjhGjA4_5-2">
          <mxGeometry x="100" y="230" width="70" height="30" as="geometry" />
        </mxCell>
        <mxCell id="tgjGIo8WqNzbjhGjA4_5-13" style="edgeStyle=orthogonalEdgeStyle;rounded=0;orthogonalLoop=1;jettySize=auto;html=1;exitX=0.5;exitY=1;exitDx=0;exitDy=0;entryX=0.5;entryY=0;entryDx=0;entryDy=0;strokeColor=#FF0000;" edge="1" parent="tgjGIo8WqNzbjhGjA4_5-2" source="tgjGIo8WqNzbjhGjA4_5-8" target="tgjGIo8WqNzbjhGjA4_5-11">
          <mxGeometry relative="1" as="geometry" />
        </mxCell>
        <mxCell id="tgjGIo8WqNzbjhGjA4_5-8" value="快照SP1&lt;br&gt;ubuntu_id1.qcow2&lt;br&gt;ubuntu_sp1.qcow2" style="rounded=0;whiteSpace=wrap;html=1;" vertex="1" parent="tgjGIo8WqNzbjhGjA4_5-2">
          <mxGeometry x="40" y="350" width="120" height="60" as="geometry" />
        </mxCell>
        <mxCell id="tgjGIo8WqNzbjhGjA4_5-10" value="创建快照" style="text;html=1;strokeColor=none;fillColor=none;align=center;verticalAlign=middle;whiteSpace=wrap;rounded=0;" vertex="1" parent="tgjGIo8WqNzbjhGjA4_5-2">
          <mxGeometry x="100" y="320" width="60" height="30" as="geometry" />
        </mxCell>
        <mxCell id="tgjGIo8WqNzbjhGjA4_5-15" style="edgeStyle=orthogonalEdgeStyle;rounded=0;orthogonalLoop=1;jettySize=auto;html=1;exitX=0.5;exitY=1;exitDx=0;exitDy=0;entryX=0.5;entryY=0;entryDx=0;entryDy=0;strokeColor=#FF0000;" edge="1" parent="tgjGIo8WqNzbjhGjA4_5-2" source="tgjGIo8WqNzbjhGjA4_5-11" target="tgjGIo8WqNzbjhGjA4_5-14">
          <mxGeometry relative="1" as="geometry" />
        </mxCell>
        <mxCell id="tgjGIo8WqNzbjhGjA4_5-11" value="快照SP2&lt;br&gt;ubuntu_id1.qcow2&lt;br&gt;ubuntu_sp1.qcow2&lt;br&gt;ubuntu_sp2.qcow2" style="rounded=0;whiteSpace=wrap;html=1;" vertex="1" parent="tgjGIo8WqNzbjhGjA4_5-2">
          <mxGeometry x="40" y="440" width="120" height="70" as="geometry" />
        </mxCell>
        <mxCell id="tgjGIo8WqNzbjhGjA4_5-12" value="创建快照" style="text;html=1;strokeColor=none;fillColor=none;align=center;verticalAlign=middle;whiteSpace=wrap;rounded=0;" vertex="1" parent="tgjGIo8WqNzbjhGjA4_5-2">
          <mxGeometry x="100" y="410" width="60" height="30" as="geometry" />
        </mxCell>
        <mxCell id="tgjGIo8WqNzbjhGjA4_5-14" value="快照SP3&lt;br&gt;ubuntu_id1.qcow2&lt;br&gt;ubuntu_sp1.qcow2&lt;br&gt;ubuntu_sp2.qcow2&lt;br&gt;ubuntu_sp3.qcow2" style="rounded=0;whiteSpace=wrap;html=1;" vertex="1" parent="tgjGIo8WqNzbjhGjA4_5-2">
          <mxGeometry x="40" y="540" width="120" height="80" as="geometry" />
        </mxCell>
        <mxCell id="tgjGIo8WqNzbjhGjA4_5-16" value="创建快照" style="text;html=1;strokeColor=none;fillColor=none;align=center;verticalAlign=middle;whiteSpace=wrap;rounded=0;" vertex="1" parent="tgjGIo8WqNzbjhGjA4_5-2">
          <mxGeometry x="100" y="510" width="60" height="30" as="geometry" />
        </mxCell>
        <mxCell id="tgjGIo8WqNzbjhGjA4_5-17" value="其他机器" style="swimlane;" vertex="1" parent="dhDz2maP-IoZ1QfBoIZU-1">
          <mxGeometry x="280" y="80" width="600" height="600" as="geometry" />
        </mxCell>
        <mxCell id="tgjGIo8WqNzbjhGjA4_5-20" style="edgeStyle=orthogonalEdgeStyle;rounded=0;orthogonalLoop=1;jettySize=auto;html=1;exitX=0.5;exitY=1;exitDx=0;exitDy=0;entryX=0.5;entryY=0;entryDx=0;entryDy=0;strokeColor=#FF0000;" edge="1" parent="tgjGIo8WqNzbjhGjA4_5-17" source="tgjGIo8WqNzbjhGjA4_5-18" target="tgjGIo8WqNzbjhGjA4_5-19">
          <mxGeometry relative="1" as="geometry" />
        </mxCell>
        <mxCell id="tgjGIo8WqNzbjhGjA4_5-26" style="edgeStyle=orthogonalEdgeStyle;rounded=0;orthogonalLoop=1;jettySize=auto;html=1;exitX=0.5;exitY=1;exitDx=0;exitDy=0;entryX=0.5;entryY=0;entryDx=0;entryDy=0;strokeColor=#FF0000;" edge="1" parent="tgjGIo8WqNzbjhGjA4_5-17" source="tgjGIo8WqNzbjhGjA4_5-18" target="tgjGIo8WqNzbjhGjA4_5-24">
          <mxGeometry relative="1" as="geometry" />
        </mxCell>
        <mxCell id="tgjGIo8WqNzbjhGjA4_5-27" style="edgeStyle=orthogonalEdgeStyle;rounded=0;orthogonalLoop=1;jettySize=auto;html=1;exitX=0.5;exitY=1;exitDx=0;exitDy=0;entryX=0.5;entryY=0;entryDx=0;entryDy=0;strokeColor=#FF0000;" edge="1" parent="tgjGIo8WqNzbjhGjA4_5-17" source="tgjGIo8WqNzbjhGjA4_5-18" target="tgjGIo8WqNzbjhGjA4_5-25">
          <mxGeometry relative="1" as="geometry" />
        </mxCell>
        <mxCell id="tgjGIo8WqNzbjhGjA4_5-43" style="edgeStyle=orthogonalEdgeStyle;rounded=0;orthogonalLoop=1;jettySize=auto;html=1;exitX=0.5;exitY=1;exitDx=0;exitDy=0;entryX=0.5;entryY=0;entryDx=0;entryDy=0;strokeColor=#FF0000;" edge="1" parent="tgjGIo8WqNzbjhGjA4_5-17" source="tgjGIo8WqNzbjhGjA4_5-18" target="tgjGIo8WqNzbjhGjA4_5-41">
          <mxGeometry relative="1" as="geometry" />
        </mxCell>
        <mxCell id="tgjGIo8WqNzbjhGjA4_5-18" value="ubuntu_id1.qcow2&lt;br&gt;复制一份&lt;br&gt;ubuntu_id2.qcow2" style="ellipse;whiteSpace=wrap;html=1;" vertex="1" parent="tgjGIo8WqNzbjhGjA4_5-17">
          <mxGeometry x="240" y="30" width="120" height="80" as="geometry" />
        </mxCell>
        <mxCell id="tgjGIo8WqNzbjhGjA4_5-19" value="虚拟机&lt;br&gt;ubuntu_id2.qcow2&lt;br&gt;ubuntu_sp1_1.qcow2" style="rounded=0;whiteSpace=wrap;html=1;" vertex="1" parent="tgjGIo8WqNzbjhGjA4_5-17">
          <mxGeometry x="40" y="150" width="120" height="60" as="geometry" />
        </mxCell>
        <mxCell id="tgjGIo8WqNzbjhGjA4_5-21" value="创建虚拟机" style="text;html=1;strokeColor=none;fillColor=none;align=center;verticalAlign=middle;whiteSpace=wrap;rounded=0;" vertex="1" parent="tgjGIo8WqNzbjhGjA4_5-17">
          <mxGeometry x="300" y="110" width="70" height="30" as="geometry" />
        </mxCell>
        <mxCell id="tgjGIo8WqNzbjhGjA4_5-24" value="&lt;span&gt;虚拟机&lt;/span&gt;&lt;br&gt;&lt;span&gt;ubuntu_id2.qcow2&lt;/span&gt;&lt;br&gt;&lt;span&gt;ubuntu_sp1_2.qcow2&lt;/span&gt;" style="rounded=0;whiteSpace=wrap;html=1;" vertex="1" parent="tgjGIo8WqNzbjhGjA4_5-17">
          <mxGeometry x="180" y="150" width="120" height="60" as="geometry" />
        </mxCell>
        <mxCell id="tgjGIo8WqNzbjhGjA4_5-25" value="&lt;span&gt;虚拟机&lt;/span&gt;&lt;br&gt;&lt;span&gt;ubuntu_id2.qcow2&lt;/span&gt;&lt;br&gt;&lt;span&gt;ubuntu_sp1_3.qcow2&lt;/span&gt;" style="rounded=0;whiteSpace=wrap;html=1;" vertex="1" parent="tgjGIo8WqNzbjhGjA4_5-17">
          <mxGeometry x="320" y="150" width="120" height="60" as="geometry" />
        </mxCell>
        <mxCell id="tgjGIo8WqNzbjhGjA4_5-31" value="虚拟机&lt;br&gt;ubuntu_id2.qcow2&lt;br&gt;ubuntu_sp1.qcow2&lt;br&gt;ubuntu_sp2_1.qcow2" style="rounded=0;whiteSpace=wrap;html=1;" vertex="1" parent="tgjGIo8WqNzbjhGjA4_5-17">
          <mxGeometry x="40" y="360" width="120" height="70" as="geometry" />
        </mxCell>
        <mxCell id="tgjGIo8WqNzbjhGjA4_5-32" value="&lt;span&gt;虚拟机&lt;/span&gt;&lt;br&gt;&lt;span&gt;ubuntu_id2.qcow2&lt;/span&gt;&lt;br&gt;&lt;span&gt;ubuntu_sp1.qcow2&lt;br&gt;ubuntu_sp2_2.qcow2&lt;br&gt;&lt;/span&gt;" style="rounded=0;whiteSpace=wrap;html=1;" vertex="1" parent="tgjGIo8WqNzbjhGjA4_5-17">
          <mxGeometry x="180" y="360" width="120" height="70" as="geometry" />
        </mxCell>
        <mxCell id="tgjGIo8WqNzbjhGjA4_5-33" value="&lt;span&gt;虚拟机&lt;/span&gt;&lt;br&gt;&lt;span&gt;ubuntu_id2.qcow2&lt;/span&gt;&lt;br&gt;&lt;span&gt;ubuntu_sp1.qcow2&lt;br&gt;ubuntu_sp2_3.qcow2&lt;br&gt;&lt;/span&gt;" style="rounded=0;whiteSpace=wrap;html=1;" vertex="1" parent="tgjGIo8WqNzbjhGjA4_5-17">
          <mxGeometry x="320" y="360" width="120" height="70" as="geometry" />
        </mxCell>
        <mxCell id="tgjGIo8WqNzbjhGjA4_5-37" style="edgeStyle=orthogonalEdgeStyle;rounded=0;orthogonalLoop=1;jettySize=auto;html=1;exitX=0.5;exitY=1;exitDx=0;exitDy=0;entryX=0.5;entryY=0;entryDx=0;entryDy=0;strokeColor=#FF0000;" edge="1" parent="tgjGIo8WqNzbjhGjA4_5-17" source="tgjGIo8WqNzbjhGjA4_5-34" target="tgjGIo8WqNzbjhGjA4_5-31">
          <mxGeometry relative="1" as="geometry" />
        </mxCell>
        <mxCell id="tgjGIo8WqNzbjhGjA4_5-38" style="edgeStyle=orthogonalEdgeStyle;rounded=0;orthogonalLoop=1;jettySize=auto;html=1;exitX=0.5;exitY=1;exitDx=0;exitDy=0;entryX=0.5;entryY=0;entryDx=0;entryDy=0;strokeColor=#FF0000;" edge="1" parent="tgjGIo8WqNzbjhGjA4_5-17" source="tgjGIo8WqNzbjhGjA4_5-34" target="tgjGIo8WqNzbjhGjA4_5-32">
          <mxGeometry relative="1" as="geometry" />
        </mxCell>
        <mxCell id="tgjGIo8WqNzbjhGjA4_5-39" style="edgeStyle=orthogonalEdgeStyle;rounded=0;orthogonalLoop=1;jettySize=auto;html=1;exitX=0.5;exitY=1;exitDx=0;exitDy=0;entryX=0.5;entryY=0;entryDx=0;entryDy=0;strokeColor=#FF0000;" edge="1" parent="tgjGIo8WqNzbjhGjA4_5-17" source="tgjGIo8WqNzbjhGjA4_5-34" target="tgjGIo8WqNzbjhGjA4_5-33">
          <mxGeometry relative="1" as="geometry" />
        </mxCell>
        <mxCell id="tgjGIo8WqNzbjhGjA4_5-45" style="edgeStyle=orthogonalEdgeStyle;rounded=0;orthogonalLoop=1;jettySize=auto;html=1;exitX=0.5;exitY=1;exitDx=0;exitDy=0;entryX=0.5;entryY=0;entryDx=0;entryDy=0;strokeColor=#FF0000;" edge="1" parent="tgjGIo8WqNzbjhGjA4_5-17" source="tgjGIo8WqNzbjhGjA4_5-34" target="tgjGIo8WqNzbjhGjA4_5-44">
          <mxGeometry relative="1" as="geometry" />
        </mxCell>
        <mxCell id="tgjGIo8WqNzbjhGjA4_5-34" value="SP3" style="ellipse;whiteSpace=wrap;html=1;" vertex="1" parent="tgjGIo8WqNzbjhGjA4_5-17">
          <mxGeometry x="240" y="239" width="120" height="80" as="geometry" />
        </mxCell>
        <mxCell id="tgjGIo8WqNzbjhGjA4_5-40" value="创建虚拟机" style="text;html=1;strokeColor=none;fillColor=none;align=center;verticalAlign=middle;whiteSpace=wrap;rounded=0;" vertex="1" parent="tgjGIo8WqNzbjhGjA4_5-17">
          <mxGeometry x="300" y="319" width="70" height="30" as="geometry" />
        </mxCell>
        <mxCell id="tgjGIo8WqNzbjhGjA4_5-41" value="&lt;span&gt;虚拟机&lt;/span&gt;&lt;br&gt;&lt;span&gt;ubuntu_id2.qcow2&lt;/span&gt;&lt;br&gt;&lt;span&gt;ubuntu_sp1_4.qcow2&lt;/span&gt;" style="rounded=0;whiteSpace=wrap;html=1;" vertex="1" parent="tgjGIo8WqNzbjhGjA4_5-17">
          <mxGeometry x="460" y="150" width="120" height="60" as="geometry" />
        </mxCell>
        <mxCell id="tgjGIo8WqNzbjhGjA4_5-44" value="&lt;span&gt;虚拟机&lt;/span&gt;&lt;br&gt;&lt;span&gt;ubuntu_id2.qcow2&lt;/span&gt;&lt;br&gt;&lt;span&gt;ubuntu_sp1.qcow2&lt;br&gt;ubuntu_sp2_4.qcow2&lt;br&gt;&lt;/span&gt;" style="rounded=0;whiteSpace=wrap;html=1;" vertex="1" parent="tgjGIo8WqNzbjhGjA4_5-17">
          <mxGeometry x="460" y="360" width="120" height="70" as="geometry" />
        </mxCell>
        <mxCell id="tgjGIo8WqNzbjhGjA4_5-23" style="edgeStyle=orthogonalEdgeStyle;rounded=0;orthogonalLoop=1;jettySize=auto;html=1;exitX=1;exitY=0.5;exitDx=0;exitDy=0;entryX=0;entryY=0.5;entryDx=0;entryDy=0;strokeColor=#FF0000;" edge="1" parent="dhDz2maP-IoZ1QfBoIZU-1" source="tgjGIo8WqNzbjhGjA4_5-11" target="tgjGIo8WqNzbjhGjA4_5-18">
          <mxGeometry relative="1" as="geometry">
            <Array as="points">
              <mxPoint x="260" y="515" />
              <mxPoint x="260" y="150" />
            </Array>
          </mxGeometry>
        </mxCell>
        <mxCell id="tgjGIo8WqNzbjhGjA4_5-29" value="ubuntu_id1.qcow2&lt;br&gt;ubuntu_sp1.qcow2" style="edgeLabel;html=1;align=center;verticalAlign=middle;resizable=0;points=[];" vertex="1" connectable="0" parent="tgjGIo8WqNzbjhGjA4_5-23">
          <mxGeometry x="0.6628" y="3" relative="1" as="geometry">
            <mxPoint x="2" y="-17" as="offset" />
          </mxGeometry>
        </mxCell>
        <mxCell id="tgjGIo8WqNzbjhGjA4_5-35" style="edgeStyle=orthogonalEdgeStyle;rounded=0;orthogonalLoop=1;jettySize=auto;html=1;exitX=1;exitY=0.5;exitDx=0;exitDy=0;entryX=0;entryY=0.5;entryDx=0;entryDy=0;strokeColor=#FF0000;" edge="1" parent="dhDz2maP-IoZ1QfBoIZU-1" source="tgjGIo8WqNzbjhGjA4_5-14" target="tgjGIo8WqNzbjhGjA4_5-34">
          <mxGeometry relative="1" as="geometry">
            <Array as="points">
              <mxPoint x="300" y="620" />
              <mxPoint x="300" y="360" />
            </Array>
          </mxGeometry>
        </mxCell>
        <mxCell id="tgjGIo8WqNzbjhGjA4_5-36" value="ubuntu_sp2.qcow2" style="edgeLabel;html=1;align=center;verticalAlign=middle;resizable=0;points=[];" vertex="1" connectable="0" parent="tgjGIo8WqNzbjhGjA4_5-35">
          <mxGeometry x="0.592" y="2" relative="1" as="geometry">
            <mxPoint x="8" y="-8" as="offset" />
          </mxGeometry>
        </mxCell>
      </root>
    </mxGraphModel>
  </diagram>
</mxfile>
